<svg width="51" height="50" viewBox="0 0 51 50" fill="none" xmlns="http://www.w3.org/2000/svg">
<path d="M25.2573 1.63766C24.8315 1.65912 24.4143 1.7647 24.0301 1.94821L7.28411 9.94963C6.85068 10.1566 6.46985 10.4578 6.16989 10.8308C5.86993 11.2038 5.65856 11.639 5.55147 12.1042L1.42011 30.0774C1.32472 30.4915 1.31404 30.9204 1.38872 31.3386C1.46339 31.7569 1.62191 32.1561 1.85488 32.5125C1.91137 32.5997 1.97212 32.684 2.03692 32.7652L13.6278 47.1768C13.9279 47.5497 14.3087 47.8508 14.7422 48.0577C15.1756 48.2646 15.6505 48.3719 16.1315 48.3719L34.7194 48.3676C35.2002 48.3679 35.675 48.2609 36.1084 48.0543C36.5418 47.8478 36.9228 47.5472 37.223 47.1746L48.8097 32.761C49.1098 32.3879 49.3214 31.9525 49.4285 31.4871C49.5357 31.0218 49.5357 30.5385 49.4286 30.0731L45.2908 12.0999C45.1838 11.6348 44.9724 11.1995 44.6724 10.8265C44.3725 10.4535 43.9916 10.1523 43.5582 9.94535L26.8101 1.94821C26.3269 1.71736 25.7929 1.61058 25.2573 1.63766Z" fill="#326CE5"/>
<path d="M25.2483 0.336336C24.7992 0.359856 24.3595 0.471985 23.9547 0.666159L6.27489 9.11091C5.81735 9.32943 5.41533 9.64738 5.09869 10.0411C4.78205 10.4349 4.55891 10.8944 4.44587 11.3854L0.0853571 30.3588C-0.0156573 30.7961 -0.0271418 31.2491 0.051585 31.691C0.130312 32.1328 0.297647 32.5545 0.543678 32.931C0.60353 33.0226 0.667854 33.1112 0.736421 33.1965L12.972 48.4112C13.2887 48.8048 13.6908 49.1227 14.1483 49.341C14.6058 49.5594 15.1071 49.6728 15.6149 49.6727L35.2372 49.6684C35.7448 49.6687 36.2459 49.5557 36.7034 49.3377C37.161 49.1197 37.5631 48.8023 37.88 48.4091L50.1113 33.1922C50.4279 32.7986 50.651 32.3392 50.7641 31.8483C50.8772 31.3574 50.8774 30.8476 50.7646 30.3566L46.3976 11.3811C46.2843 10.8905 46.061 10.4314 45.7444 10.0381C45.4278 9.64469 45.0259 9.32707 44.5686 9.10877L26.8888 0.664018C26.3783 0.420148 25.8142 0.307468 25.2483 0.336336V0.336336ZM25.2568 1.63849C25.7925 1.61141 26.3264 1.71819 26.8096 1.94904L43.5577 9.94617C43.9911 10.1532 44.372 10.4543 44.6719 10.8273C44.9719 11.2004 45.1833 11.6356 45.2904 12.1007L49.4281 30.0739C49.5352 30.5393 49.5352 31.0226 49.4281 31.4879C49.3209 31.9533 49.1094 32.3887 48.8092 32.7618L37.2226 47.1755C36.9223 47.548 36.5413 47.8487 36.1079 48.0552C35.6745 48.2617 35.1997 48.3688 34.7189 48.3684L16.131 48.3727C15.65 48.3728 15.1751 48.2654 14.7417 48.0585C14.3083 47.8516 13.9274 47.5505 13.6274 47.1776L2.03645 32.7661C1.97165 32.6848 1.9109 32.6005 1.85441 32.5134C1.62144 32.1569 1.46292 31.7578 1.38824 31.3395C1.31357 30.9212 1.32424 30.4923 1.41964 30.0782L5.55099 12.105C5.65808 11.6399 5.86946 11.2047 6.16942 10.8317C6.46937 10.4587 6.85021 10.1575 7.28363 9.95048L24.0296 1.94906C24.4138 1.76555 24.831 1.65997 25.2568 1.63851L25.2568 1.63849Z" fill="white"/>
<path d="M22.1065 44.4432C22.379 44.4432 22.6172 44.3606 22.8209 44.1954C23.0247 44.0302 23.1376 43.8237 23.1596 43.5759H23.8824C23.8686 43.832 23.7805 44.0757 23.618 44.3069C23.4556 44.5382 23.2381 44.7227 22.9655 44.8604C22.6957 44.998 22.4093 45.0669 22.1065 45.0669C21.498 45.0669 21.0134 44.8645 20.6527 44.4597C20.2948 44.0522 20.1158 43.4961 20.1158 42.7912V42.6632C20.1158 42.2282 20.1956 41.8413 20.3553 41.5027C20.515 41.164 20.7436 40.9011 21.0409 40.7138C21.341 40.5266 21.6948 40.433 22.1023 40.433C22.6034 40.433 23.0192 40.5831 23.3496 40.8832C23.6827 41.1833 23.8603 41.5729 23.8824 42.052H23.1596C23.1376 41.7629 23.0274 41.5261 22.8292 41.3416C22.6337 41.1544 22.3914 41.0608 22.1023 41.0608C21.7141 41.0608 21.4126 41.2012 21.1979 41.482C20.9859 41.7601 20.8798 42.1635 20.8798 42.6921V42.8367C20.8798 43.3515 20.9859 43.748 21.1979 44.0261C21.4099 44.3042 21.7127 44.4432 22.1065 44.4432ZM25.46 40.5156L25.4807 41.0112C25.8083 40.6257 26.2502 40.433 26.8064 40.433C27.4314 40.433 27.8568 40.6725 28.0826 41.1516C28.2312 40.9369 28.424 40.7634 28.6608 40.6312C28.9003 40.4991 29.1825 40.433 29.5074 40.433C30.4876 40.433 30.986 40.952 31.0025 41.99V44.9843H30.2384V42.0354C30.2384 41.716 30.1655 41.4779 30.0195 41.3209C29.8736 41.1613 29.6286 41.0814 29.2844 41.0814C29.0008 41.0814 28.7654 41.1668 28.5782 41.3375C28.3909 41.5054 28.2822 41.7326 28.2519 42.0189V44.9843H27.4837V42.0561C27.4837 41.4063 27.1657 41.0814 26.5297 41.0814C26.0286 41.0814 25.6858 41.2948 25.5013 41.7216V44.9843H24.7373V40.5156H25.46Z" fill="white"/>
<path d="M20.7569 14.7593H37.18" stroke="white" stroke-width="2.23791" stroke-miterlimit="10" stroke-linejoin="round"/>
<path d="M13.6691 14.7593H17.7808" stroke="white" stroke-width="2.23791" stroke-miterlimit="10" stroke-linejoin="round"/>
<path d="M19.6369 20.7271H23.7485" stroke="white" stroke-width="2.23791" stroke-miterlimit="10" stroke-linejoin="round"/>
<path d="M26.7246 26.6946H37.1799" stroke="white" stroke-width="2.23791" stroke-miterlimit="10" stroke-linejoin="round"/>
<path d="M19.6369 26.6946H23.7485" stroke="white" stroke-width="2.23791" stroke-miterlimit="10" stroke-linejoin="round"/>
<path d="M20.7569 32.6625H37.18" stroke="white" stroke-width="2.23791" stroke-miterlimit="10" stroke-linejoin="round"/>
<path d="M13.6691 32.6625H17.7808" stroke="white" stroke-width="2.23791" stroke-miterlimit="10" stroke-linejoin="round"/>
</svg>
