<svg width="57" height="50" viewBox="0 0 57 50" fill="none" xmlns="http://www.w3.org/2000/svg">
<path d="M25.2574 1.30588C24.8315 1.32733 24.4143 1.43291 24.0302 1.61643L7.28417 9.61784C6.85075 9.82483 6.46991 10.126 6.16995 10.499C5.86999 10.872 5.65862 11.3073 5.55153 11.7724L1.42018 29.7456C1.32478 30.1597 1.3141 30.5886 1.38878 31.0069C1.46346 31.4251 1.62197 31.8243 1.85494 32.1807C1.91143 32.2679 1.97218 32.3522 2.03698 32.4334L13.6279 46.845C13.9279 47.2179 14.3088 47.519 14.7422 47.7259C15.1757 47.9328 15.6505 48.0402 16.1316 48.0401L34.7194 48.0358C35.2003 48.0361 35.675 47.9291 36.1085 47.7226C36.5419 47.516 36.9229 47.2154 37.2231 46.8428L48.8097 32.4292C49.1099 32.0561 49.3214 31.6207 49.4286 31.1553C49.5358 30.69 49.5358 30.2067 49.4287 29.7413L45.2909 11.7681C45.1838 11.303 44.9724 10.8677 44.6725 10.4947C44.3725 10.1217 43.9917 9.82055 43.5583 9.61356L26.8101 1.61643C26.3269 1.38558 25.793 1.27879 25.2574 1.30588Z" fill="#326CE5"/>
<path d="M25.2483 0.00442671C24.7992 0.0279469 24.3595 0.140076 23.9547 0.33425L6.27489 8.779C5.81735 8.99752 5.41533 9.31547 5.09869 9.70924C4.78205 10.103 4.55891 10.5625 4.44587 11.0535L0.0853571 30.0269C-0.0156573 30.4642 -0.0271418 30.9172 0.051585 31.3591C0.130312 31.8009 0.297647 32.2225 0.543678 32.5991C0.60353 32.6906 0.667854 32.7793 0.736421 32.8646L12.972 48.0793C13.2887 48.4729 13.6908 48.7907 14.1483 49.0091C14.6058 49.2275 15.1071 49.3409 15.6149 49.3408L35.2372 49.3365C35.7448 49.3368 36.2459 49.2238 36.7034 49.0058C37.161 48.7878 37.5631 48.4704 37.88 48.0772L50.1113 32.8603C50.4279 32.4667 50.651 32.0073 50.7641 31.5164C50.8772 31.0255 50.8774 30.5157 50.7646 30.0247L46.3976 11.0492C46.2843 10.5586 46.061 10.0995 45.7444 9.70616C45.4278 9.31278 45.0259 8.99516 44.5686 8.77686L26.8888 0.332108C26.3783 0.0882385 25.8142 -0.0244415 25.2483 0.00442671ZM25.2568 1.30658C25.7925 1.2795 26.3264 1.38628 26.8096 1.61713L43.5577 9.61427C43.9911 9.82125 44.372 10.1224 44.6719 10.4954C44.9719 10.8684 45.1833 11.3037 45.2904 11.7688L49.4281 29.742C49.5352 30.2074 49.5352 30.6907 49.4281 31.156C49.3209 31.6214 49.1094 32.0568 48.8092 32.4299L37.2226 46.8436C36.9223 47.2161 36.5413 47.5168 36.1079 47.7233C35.6745 47.9298 35.1997 48.0368 34.7189 48.0365L16.131 48.0408C15.65 48.0409 15.1751 47.9335 14.7417 47.7266C14.3083 47.5197 13.9274 47.2186 13.6274 46.8457L2.03645 32.4342C1.97165 32.3529 1.9109 32.2686 1.85441 32.1815C1.62144 31.825 1.46292 31.4259 1.38824 31.0076C1.31357 30.5893 1.32424 30.1604 1.41964 29.7463L5.55099 11.7731C5.65808 11.308 5.86946 10.8727 6.16941 10.4997C6.46937 10.1267 6.85021 9.82556 7.28363 9.61857L24.0296 1.61715C24.4138 1.43364 24.831 1.32806 25.2568 1.3066L25.2568 1.30658Z" fill="white"/>
<path d="M24.1065 44.1113C24.379 44.1113 24.6172 44.0287 24.8209 43.8635C25.0247 43.6983 25.1376 43.4918 25.1596 43.244H25.8824C25.8686 43.5001 25.7805 43.7437 25.618 43.975C25.4556 44.2063 25.2381 44.3908 24.9655 44.5284C24.6957 44.6661 24.4093 44.7349 24.1065 44.7349C23.498 44.7349 23.0134 44.5326 22.6527 44.1278C22.2948 43.7203 22.1158 43.1642 22.1158 42.4593V42.3313C22.1158 41.8963 22.1956 41.5094 22.3553 41.1708C22.515 40.8321 22.7436 40.5692 23.0409 40.3819C23.341 40.1947 23.6948 40.1011 24.1023 40.1011C24.6034 40.1011 25.0192 40.2511 25.3496 40.5513C25.6827 40.8514 25.8603 41.241 25.8824 41.72H25.1596C25.1376 41.4309 25.0274 41.1942 24.8292 41.0097C24.6337 40.8225 24.3914 40.7288 24.1023 40.7288C23.7141 40.7288 23.4126 40.8693 23.1979 41.1501C22.9859 41.4282 22.8798 41.8316 22.8798 42.3602V42.5047C22.8798 43.0196 22.9859 43.4161 23.1979 43.6942C23.4099 43.9723 23.7127 44.1113 24.1065 44.1113ZM28.9014 40.8693C28.7857 40.85 28.6605 40.8404 28.5256 40.8404C28.0245 40.8404 27.6844 41.0537 27.5054 41.4805V44.6523H26.7414V40.1837H27.4848L27.4972 40.6999C27.7477 40.3007 28.1029 40.1011 28.5627 40.1011C28.7114 40.1011 28.8243 40.1204 28.9014 40.1589V40.8693Z" fill="white"/>
<path d="M37.4331 21.4371H35.4799V16.2285C35.4799 14.7961 34.308 13.6242 32.8756 13.6242H27.667V11.6709C27.667 9.87394 26.2086 8.41553 24.4116 8.41553C22.6146 8.41553 21.1562 9.87394 21.1562 11.6709V13.6242H15.9476C14.5152 13.6242 13.3563 14.7961 13.3563 16.2285V21.1767H15.2965C17.2367 21.1767 18.8123 22.7523 18.8123 24.6925C18.8123 26.6327 17.2367 28.2083 15.2965 28.2083H13.3433V33.1565C13.3433 34.5889 14.5152 35.7608 15.9476 35.7608H20.8958V33.8076C20.8958 31.8674 22.4714 30.2917 24.4116 30.2917C26.3518 30.2917 27.9274 31.8674 27.9274 33.8076V35.7608H32.8756C34.308 35.7608 35.4799 34.5889 35.4799 33.1565V27.9479H37.4331C39.2301 27.9479 40.6885 26.4895 40.6885 24.6925C40.6885 22.8955 39.2301 21.4371 37.4331 21.4371Z" fill="white"/>
<path fill-rule="evenodd" clip-rule="evenodd" d="M56 43.5C56 46.5382 53.5382 49 50.5 49C47.4618 49 45 46.5382 45 43.5C45 40.4618 47.4618 38 50.5 38C53.5382 38 56 40.4618 56 43.5Z" stroke="#FFC010" stroke-width="1.6" stroke-linejoin="round"/>
<path d="M50.5 43.0415V46.2498" stroke="#FFC010" stroke-width="1.6" stroke-linecap="round" stroke-linejoin="round"/>
<path fill-rule="evenodd" clip-rule="evenodd" d="M50.5 39.8335C49.994 39.8335 49.5834 40.246 49.5834 40.7502C49.5834 41.2543 49.994 41.6668 50.5 41.6668C51.0042 41.6668 51.4167 41.2543 51.4167 40.7502C51.4167 40.246 51.0042 39.8335 50.5 39.8335Z" fill="#FFC010"/>
</svg>
