<svg width="51" height="51" viewBox="0 0 51 51" fill="none" xmlns="http://www.w3.org/2000/svg">
<path d="M25.2573 2.30356C24.8315 2.32501 24.4143 2.43059 24.0301 2.61411L7.28411 10.6155C6.85068 10.8225 6.46985 11.1237 6.16989 11.4967C5.86993 11.8697 5.65856 12.3049 5.55147 12.7701L1.42011 30.7433C1.32472 31.1574 1.31404 31.5863 1.38872 32.0045C1.46339 32.4228 1.62191 32.822 1.85488 33.1784C1.91137 33.2655 1.97212 33.3499 2.03692 33.4311L13.6278 47.8427C13.9279 48.2156 14.3087 48.5167 14.7422 48.7236C15.1756 48.9305 15.6505 49.0378 16.1315 49.0377L34.7194 49.0335C35.2002 49.0338 35.675 48.9267 36.1084 48.7202C36.5418 48.5137 36.9228 48.213 37.223 47.8405L48.8097 33.4269C49.1098 33.0538 49.3214 32.6184 49.4285 32.153C49.5357 31.6877 49.5357 31.2044 49.4286 30.739L45.2908 12.7658C45.1838 12.3007 44.9724 11.8654 44.6724 11.4924C44.3725 11.1194 43.9916 10.8182 43.5582 10.6112L26.8101 2.61411C26.3269 2.38326 25.7929 2.27647 25.2573 2.30356Z" fill="#326CE5"/>
<path d="M25.2483 1.00223C24.7992 1.02575 24.3595 1.13788 23.9547 1.33205L6.27489 9.7768C5.81735 9.99533 5.41533 10.3133 5.09869 10.707C4.78205 11.1008 4.55891 11.5603 4.44587 12.0513L0.0853571 31.0247C-0.0156573 31.462 -0.0271418 31.915 0.051585 32.3569C0.130312 32.7987 0.297647 33.2203 0.543678 33.5969C0.60353 33.6884 0.667854 33.7771 0.736421 33.8624L12.972 49.0771C13.2887 49.4707 13.6908 49.7885 14.1483 50.0069C14.6058 50.2253 15.1071 50.3387 15.6149 50.3386L35.2372 50.3343C35.7448 50.3346 36.2459 50.2216 36.7034 50.0036C37.161 49.7856 37.5631 49.4682 37.88 49.075L50.1113 33.8581C50.4279 33.4645 50.651 33.0051 50.7641 32.5142C50.8772 32.0233 50.8774 31.5135 50.7646 31.0225L46.3976 12.047C46.2843 11.5564 46.061 11.0973 45.7444 10.704C45.4278 10.3106 45.0259 9.99297 44.5686 9.77466L26.8888 1.32991C26.3783 1.08604 25.8142 0.973361 25.2483 1.00223V1.00223ZM25.2568 2.30439C25.7925 2.2773 26.3264 2.38409 26.8096 2.61494L43.5577 10.6121C43.9911 10.8191 44.372 11.1202 44.6719 11.4932C44.9719 11.8662 45.1833 12.3015 45.2904 12.7666L49.4281 30.7398C49.5352 31.2052 49.5352 31.6885 49.4281 32.1538C49.3209 32.6192 49.1094 33.0546 48.8092 33.4277L37.2226 47.8414C36.9223 48.2139 36.5413 48.5146 36.1079 48.7211C35.6745 48.9276 35.1997 49.0346 34.7189 49.0343L16.131 49.0386C15.65 49.0387 15.1751 48.9313 14.7417 48.7244C14.3083 48.5175 13.9274 48.2164 13.6274 47.8435L2.03645 33.432C1.97165 33.3507 1.9109 33.2664 1.85441 33.1793C1.62144 32.8228 1.46292 32.4237 1.38824 32.0054C1.31357 31.5871 1.32424 31.1582 1.41964 30.7441L5.55099 12.7709C5.65808 12.3058 5.86946 11.8705 6.16942 11.4975C6.46937 11.1245 6.85021 10.8234 7.28363 10.6164L24.0296 2.61495C24.4138 2.43144 24.831 2.32586 25.2568 2.30441L25.2568 2.30439Z" fill="white"/>
<path d="M37.4332 22.4349H35.48V17.2263C35.48 15.7939 34.308 14.622 32.8757 14.622H27.667V12.6687C27.667 10.8717 26.2086 9.41333 24.4116 9.41333C22.6147 9.41333 21.1563 10.8717 21.1563 12.6687V14.622H15.9476C14.5153 14.622 13.3563 15.7939 13.3563 17.2263V22.1745H15.2966C17.2368 22.1745 18.8124 23.7501 18.8124 25.6903C18.8124 27.6305 17.2368 29.2061 15.2966 29.2061H13.3433V34.1543C13.3433 35.5867 14.5153 36.7586 15.9476 36.7586H20.8958V34.8054C20.8958 32.8652 22.4714 31.2896 24.4116 31.2896C26.3519 31.2896 27.9275 32.8652 27.9275 34.8054V36.7586H32.8757C34.308 36.7586 35.48 35.5867 35.48 34.1543V28.9457H37.4332C39.2302 28.9457 40.6886 27.4873 40.6886 25.6903C40.6886 23.8933 39.2302 22.4349 37.4332 22.4349V22.4349Z" fill="white"/>
</svg>
