<svg width="57" height="51" viewBox="0 0 57 51" fill="none" xmlns="http://www.w3.org/2000/svg">
<path fill-rule="evenodd" clip-rule="evenodd" d="M56 43.5C56 46.5382 53.5382 49 50.5 49C47.4618 49 45 46.5382 45 43.5C45 40.4618 47.4618 38 50.5 38C53.5382 38 56 40.4618 56 43.5Z" stroke="#FFC010" stroke-width="1.6" stroke-linejoin="round"/>
<path d="M50.5 43.0416V46.25" stroke="#FFC010" stroke-width="1.6" stroke-linecap="round" stroke-linejoin="round"/>
<path fill-rule="evenodd" clip-rule="evenodd" d="M50.5 39.8334C49.994 39.8334 49.5833 40.2459 49.5833 40.75C49.5833 41.2542 49.994 41.6667 50.5 41.6667C51.0042 41.6667 51.4167 41.2542 51.4167 40.75C51.4167 40.2459 51.0042 39.8334 50.5 39.8334Z" fill="#FFC010"/>
<path d="M25.2573 2.30356C24.8315 2.32501 24.4143 2.43059 24.0301 2.61411L7.28411 10.6155C6.85068 10.8225 6.46985 11.1237 6.16989 11.4967C5.86993 11.8697 5.65856 12.3049 5.55147 12.7701L1.42011 30.7433C1.32472 31.1574 1.31404 31.5863 1.38872 32.0045C1.46339 32.4228 1.62191 32.822 1.85488 33.1784C1.91137 33.2655 1.97212 33.3499 2.03692 33.4311L13.6278 47.8427C13.9279 48.2156 14.3087 48.5167 14.7422 48.7236C15.1756 48.9305 15.6505 49.0378 16.1315 49.0377L34.7194 49.0335C35.2002 49.0338 35.675 48.9267 36.1084 48.7202C36.5418 48.5137 36.9228 48.213 37.223 47.8405L48.8097 33.4269C49.1098 33.0538 49.3214 32.6184 49.4285 32.153C49.5357 31.6877 49.5357 31.2044 49.4286 30.739L45.2908 12.7658C45.1838 12.3007 44.9724 11.8654 44.6724 11.4924C44.3725 11.1194 43.9916 10.8182 43.5582 10.6112L26.8101 2.61411C26.3269 2.38326 25.7929 2.27647 25.2573 2.30356Z" fill="#326CE5"/>
<path d="M25.2483 1.00223C24.7992 1.02575 24.3595 1.13788 23.9547 1.33205L6.27489 9.7768C5.81735 9.99533 5.41533 10.3133 5.09869 10.707C4.78205 11.1008 4.55891 11.5603 4.44587 12.0513L0.0853571 31.0247C-0.0156573 31.462 -0.0271418 31.915 0.051585 32.3569C0.130312 32.7987 0.297647 33.2203 0.543678 33.5969C0.60353 33.6884 0.667854 33.7771 0.736421 33.8624L12.972 49.0771C13.2887 49.4707 13.6908 49.7885 14.1483 50.0069C14.6058 50.2253 15.1071 50.3387 15.6149 50.3386L35.2372 50.3343C35.7448 50.3346 36.2459 50.2216 36.7034 50.0036C37.161 49.7856 37.5631 49.4682 37.88 49.075L50.1113 33.8581C50.4279 33.4645 50.651 33.0051 50.7641 32.5142C50.8772 32.0233 50.8774 31.5135 50.7646 31.0225L46.3976 12.047C46.2843 11.5564 46.061 11.0973 45.7444 10.704C45.4278 10.3106 45.0259 9.99297 44.5686 9.77466L26.8888 1.32991C26.3783 1.08604 25.8142 0.973361 25.2483 1.00223V1.00223ZM25.2568 2.30439C25.7925 2.2773 26.3264 2.38409 26.8096 2.61494L43.5577 10.6121C43.9911 10.8191 44.372 11.1202 44.6719 11.4932C44.9719 11.8662 45.1833 12.3015 45.2904 12.7666L49.4281 30.7398C49.5352 31.2052 49.5352 31.6885 49.4281 32.1538C49.3209 32.6192 49.1094 33.0546 48.8092 33.4277L37.2226 47.8414C36.9223 48.2139 36.5413 48.5146 36.1079 48.7211C35.6745 48.9276 35.1997 49.0346 34.7189 49.0343L16.131 49.0386C15.65 49.0387 15.1751 48.9313 14.7417 48.7244C14.3083 48.5175 13.9274 48.2164 13.6274 47.8435L2.03645 33.432C1.97165 33.3507 1.9109 33.2664 1.85441 33.1793C1.62144 32.8228 1.46292 32.4237 1.38824 32.0054C1.31357 31.5871 1.32424 31.1582 1.41964 30.7441L5.55099 12.7709C5.65808 12.3058 5.86946 11.8705 6.16942 11.4975C6.46937 11.1245 6.85021 10.8234 7.28363 10.6164L24.0296 2.61495C24.4138 2.43144 24.831 2.32586 25.2568 2.30441L25.2568 2.30439Z" fill="white"/>
<path d="M22.1065 45.1091C22.379 45.1091 22.6172 45.0265 22.8209 44.8613C23.0247 44.6961 23.1376 44.4896 23.1596 44.2418H23.8824C23.8686 44.4979 23.7805 44.7415 23.618 44.9728C23.4556 45.2041 23.2381 45.3886 22.9655 45.5262C22.6957 45.6639 22.4093 45.7327 22.1065 45.7327C21.498 45.7327 21.0134 45.5304 20.6527 45.1256C20.2948 44.7181 20.1158 44.162 20.1158 43.4571V43.3291C20.1158 42.8941 20.1956 42.5072 20.3553 42.1686C20.515 41.8299 20.7436 41.567 21.0409 41.3797C21.341 41.1925 21.6948 41.0989 22.1023 41.0989C22.6034 41.0989 23.0192 41.2489 23.3496 41.5491C23.6827 41.8492 23.8603 42.2388 23.8824 42.7178H23.1596C23.1376 42.4287 23.0274 42.192 22.8292 42.0075C22.6337 41.8203 22.3914 41.7266 22.1023 41.7266C21.7141 41.7266 21.4126 41.8671 21.1979 42.1479C20.9859 42.426 20.8798 42.8294 20.8798 43.358V43.5025C20.8798 44.0174 20.9859 44.4139 21.1979 44.692C21.4099 44.9701 21.7127 45.1091 22.1065 45.1091ZM26.9014 41.8671C26.7857 41.8478 26.6605 41.8382 26.5256 41.8382C26.0245 41.8382 25.6844 42.0515 25.5054 42.4783V45.6501H24.7414V41.1815H25.4848L25.4972 41.6977C25.7477 41.2985 26.1029 41.0989 26.5627 41.0989C26.7114 41.0989 26.8243 41.1182 26.9014 41.1567V41.8671ZM27.3392 43.3786C27.3392 42.6931 27.5016 42.1424 27.8265 41.7266C28.1514 41.3081 28.5768 41.0989 29.1027 41.0989C29.6258 41.0989 30.0402 41.2779 30.3458 41.6358V39.3065H31.1099V45.6501H30.4078L30.3706 45.1711C30.065 45.5455 29.6396 45.7327 29.0944 45.7327C28.5768 45.7327 28.1542 45.5207 27.8265 45.0967C27.5016 44.6727 27.3392 44.1193 27.3392 43.4365V43.3786ZM28.1032 43.4654C28.1032 43.972 28.2078 44.3685 28.4171 44.6548C28.6264 44.9412 28.9155 45.0843 29.2844 45.0843C29.769 45.0843 30.1228 44.8668 30.3458 44.4318V42.3792C30.1173 41.9579 29.7662 41.7473 29.2927 41.7473C28.9182 41.7473 28.6264 41.8918 28.4171 42.1809C28.2078 42.47 28.1032 42.8982 28.1032 43.4654Z" fill="white"/>
<path d="M37.4332 22.4349H35.48V17.2263C35.48 15.7939 34.308 14.622 32.8757 14.622H27.667V12.6687C27.667 10.8717 26.2086 9.41333 24.4116 9.41333C22.6147 9.41333 21.1563 10.8717 21.1563 12.6687V14.622H15.9476C14.5153 14.622 13.3563 15.7939 13.3563 17.2263V22.1745H15.2966C17.2368 22.1745 18.8124 23.7501 18.8124 25.6903C18.8124 27.6305 17.2368 29.2061 15.2966 29.2061H13.3433V34.1543C13.3433 35.5867 14.5153 36.7586 15.9476 36.7586H20.8958V34.8054C20.8958 32.8652 22.4714 31.2896 24.4116 31.2896C26.3519 31.2896 27.9275 32.8652 27.9275 34.8054V36.7586H32.8757C34.308 36.7586 35.48 35.5867 35.48 34.1543V28.9457H37.4332C39.2302 28.9457 40.6886 27.4873 40.6886 25.6903C40.6886 23.8933 39.2302 22.4349 37.4332 22.4349V22.4349Z" fill="white"/>
</svg>
