<svg width="57" height="50" viewBox="0 0 57 50" fill="none" xmlns="http://www.w3.org/2000/svg">
<path fill-rule="evenodd" clip-rule="evenodd" d="M56 42.9C56 45.9382 53.5382 48.4 50.5 48.4C47.4618 48.4 45 45.9382 45 42.9C45 39.8618 47.4618 37.4 50.5 37.4C53.5382 37.4 56 39.8618 56 42.9Z" stroke="#09804C" stroke-width="1.6" stroke-linejoin="round"/>
<path d="M53.25 41.25L49.95 44.55L47.75 42.35" stroke="#09804C" stroke-width="1.6" stroke-linecap="round" stroke-linejoin="round"/>
<path d="M25.2573 1.30576C24.8315 1.32721 24.4143 1.43279 24.0301 1.6163L7.28411 9.61772C6.85068 9.82471 6.46985 10.1259 6.16989 10.4989C5.86993 10.8719 5.65856 11.3071 5.55147 11.7723L1.42011 29.7455C1.32472 30.1596 1.31404 30.5885 1.38872 31.0067C1.46339 31.425 1.62191 31.8242 1.85488 32.1806C1.91137 32.2677 1.97212 32.3521 2.03692 32.4333L13.6278 46.8449C13.9279 47.2178 14.3087 47.5189 14.7422 47.7258C15.1756 47.9327 15.6505 48.04 16.1315 48.0399L34.7194 48.0357C35.2002 48.036 35.675 47.9289 36.1084 47.7224C36.5418 47.5159 36.9228 47.2152 37.223 46.8427L48.8097 32.4291C49.1098 32.056 49.3214 31.6206 49.4285 31.1552C49.5357 30.6899 49.5357 30.2066 49.4286 29.7412L45.2908 11.768C45.1838 11.3029 44.9724 10.8676 44.6724 10.4946C44.3725 10.1216 43.9916 9.82043 43.5582 9.61344L26.8101 1.6163C26.3269 1.38546 25.7929 1.27867 25.2573 1.30576Z" fill="#326CE5"/>
<path d="M25.2483 0.00442671C24.7992 0.0279469 24.3595 0.140076 23.9547 0.33425L6.27489 8.779C5.81735 8.99752 5.41533 9.31547 5.09869 9.70924C4.78205 10.103 4.55891 10.5625 4.44587 11.0535L0.0853571 30.0269C-0.0156573 30.4642 -0.0271418 30.9172 0.051585 31.3591C0.130312 31.8009 0.297647 32.2225 0.543678 32.5991C0.60353 32.6906 0.667854 32.7793 0.736421 32.8646L12.972 48.0793C13.2887 48.4729 13.6908 48.7907 14.1483 49.0091C14.6058 49.2275 15.1071 49.3409 15.6149 49.3408L35.2372 49.3365C35.7448 49.3368 36.2459 49.2238 36.7034 49.0058C37.161 48.7878 37.5631 48.4704 37.88 48.0772L50.1113 32.8603C50.4279 32.4667 50.651 32.0073 50.7641 31.5164C50.8772 31.0255 50.8774 30.5157 50.7646 30.0247L46.3976 11.0492C46.2843 10.5586 46.061 10.0995 45.7444 9.70616C45.4278 9.31278 45.0259 8.99516 44.5686 8.77686L26.8888 0.332108C26.3783 0.0882385 25.8142 -0.0244415 25.2483 0.00442671V0.00442671ZM25.2568 1.30658C25.7925 1.2795 26.3264 1.38628 26.8096 1.61713L43.5577 9.61427C43.9911 9.82125 44.372 10.1224 44.6719 10.4954C44.9719 10.8684 45.1833 11.3037 45.2904 11.7688L49.4281 29.742C49.5352 30.2074 49.5352 30.6907 49.4281 31.156C49.3209 31.6214 49.1094 32.0568 48.8092 32.4299L37.2226 46.8436C36.9223 47.2161 36.5413 47.5168 36.1079 47.7233C35.6745 47.9298 35.1997 48.0368 34.7189 48.0365L16.131 48.0408C15.65 48.0409 15.1751 47.9335 14.7417 47.7266C14.3083 47.5197 13.9274 47.2186 13.6274 46.8457L2.03645 32.4342C1.97165 32.3529 1.9109 32.2686 1.85441 32.1815C1.62144 31.825 1.46292 31.4259 1.38824 31.0076C1.31357 30.5893 1.32424 30.1604 1.41964 29.7463L5.55099 11.7731C5.65808 11.308 5.86946 10.8727 6.16942 10.4997C6.46937 10.1267 6.85021 9.82556 7.28363 9.61857L24.0296 1.61715C24.4138 1.43364 24.831 1.32806 25.2568 1.30661L25.2568 1.30658Z" fill="white"/>
<path d="M13.9255 40.9711C13.9255 40.2855 14.0879 39.7348 14.4128 39.3191C14.7377 38.9005 15.1631 38.6913 15.689 38.6913C16.2121 38.6913 16.6265 38.8703 16.9321 39.2282V36.8989H17.6962V43.2426H16.9941L16.9569 42.7635C16.6513 43.1379 16.2259 43.3252 15.6807 43.3252C15.1631 43.3252 14.7405 43.1131 14.4128 42.6891C14.0879 42.2651 13.9255 41.7117 13.9255 41.0289V40.9711ZM14.6895 41.0578C14.6895 41.5644 14.7942 41.9609 15.0034 42.2472C15.2127 42.5336 15.5018 42.6767 15.8707 42.6767C16.3553 42.6767 16.7091 42.4592 16.9321 42.0242V39.9716C16.7036 39.5503 16.3526 39.3397 15.879 39.3397C15.5045 39.3397 15.2127 39.4843 15.0034 39.7734C14.7942 40.0625 14.6895 40.4906 14.6895 41.0578ZM20.74 43.3252C20.1343 43.3252 19.6414 43.1269 19.2615 42.7304C18.8815 42.3312 18.6915 41.7984 18.6915 41.1321V40.9917C18.6915 40.5484 18.7755 40.1533 18.9434 39.8064C19.1141 39.4567 19.3509 39.1841 19.6538 38.9887C19.9594 38.7904 20.2898 38.6913 20.645 38.6913C21.226 38.6913 21.6775 38.8827 21.9996 39.2654C22.3218 39.6481 22.4828 40.196 22.4828 40.9091V41.2271H19.4556C19.4666 41.6676 19.5946 42.0242 19.8397 42.2968C20.0875 42.5666 20.4013 42.7015 20.7813 42.7015C21.0511 42.7015 21.2796 42.6465 21.4669 42.5363C21.6541 42.4262 21.8179 42.2803 21.9583 42.0985L22.425 42.462C22.0506 43.0374 21.4889 43.3252 20.74 43.3252ZM20.645 39.3191C20.3366 39.3191 20.0778 39.4319 19.8686 39.6577C19.6593 39.8807 19.5299 40.1946 19.4803 40.5994H21.7188V40.5415C21.6968 40.1533 21.5921 39.8532 21.4049 39.6412C21.2177 39.4264 20.9644 39.3191 20.645 39.3191ZM27.1456 41.0578C27.1456 41.7379 26.9901 42.2858 26.6789 42.7015C26.3678 43.1173 25.9465 43.3252 25.4151 43.3252C24.8727 43.3252 24.446 43.1531 24.1348 42.8089V44.9606H23.3708V38.7739H24.0688L24.1059 39.2695C24.4171 38.884 24.8493 38.6913 25.4028 38.6913C25.9397 38.6913 26.3637 38.8937 26.6748 39.2984C26.9887 39.7031 27.1456 40.2662 27.1456 40.9876V41.0578ZM26.3816 40.9711C26.3816 40.4672 26.2742 40.0693 26.0594 39.7775C25.8447 39.4856 25.5501 39.3397 25.1756 39.3397C24.713 39.3397 24.3661 39.5448 24.1348 39.9551V42.0903C24.3634 42.4978 24.713 42.7015 25.1839 42.7015C25.5501 42.7015 25.8405 42.557 26.0553 42.2679C26.2728 41.976 26.3816 41.5437 26.3816 40.9711ZM28.9504 43.2426H28.1864V36.8989H28.9504V43.2426ZM29.9747 40.9669C29.9747 40.5291 30.06 40.1354 30.2307 39.7857C30.4042 39.4361 30.6437 39.1662 30.9493 38.9763C31.2577 38.7863 31.6088 38.6913 32.0025 38.6913C32.611 38.6913 33.1025 38.9019 33.4769 39.3232C33.8541 39.7444 34.0427 40.3047 34.0427 41.0041V41.0578C34.0427 41.4928 33.9587 41.8838 33.7908 42.2307C33.6256 42.5749 33.3874 42.8433 33.0763 43.0361C32.7679 43.2288 32.4127 43.3252 32.0108 43.3252C31.405 43.3252 30.9136 43.1145 30.5363 42.6933C30.1619 42.272 29.9747 41.7145 29.9747 41.0206V40.9669ZM30.7428 41.0578C30.7428 41.5534 30.8571 41.9512 31.0856 42.2514C31.3169 42.5515 31.6253 42.7015 32.0108 42.7015C32.399 42.7015 32.7074 42.5501 32.9359 42.2472C33.1644 41.9416 33.2787 41.5148 33.2787 40.9669C33.2787 40.4768 33.1617 40.0804 32.9276 39.7775C32.6963 39.4719 32.388 39.3191 32.0025 39.3191C31.6253 39.3191 31.321 39.4691 31.0898 39.7692C30.8585 40.0693 30.7428 40.4989 30.7428 41.0578ZM36.3968 42.1233L37.4376 38.7739H38.2553L36.4588 43.9323C36.1807 44.6757 35.7388 45.0474 35.133 45.0474L34.9885 45.035L34.7035 44.9813V44.3618L34.91 44.3783C35.1688 44.3783 35.3698 44.326 35.513 44.2214C35.6589 44.1167 35.7787 43.9254 35.8723 43.6473L36.0416 43.193L34.4475 38.7739H35.2817L36.3968 42.1233Z" fill="white"/>
<path fill-rule="evenodd" clip-rule="evenodd" d="M24.1865 35.4045C17.2997 35.7302 11.4427 30.4331 11.0771 23.5483C10.7114 16.6636 15.9746 10.7759 22.8571 10.3705C29.7396 9.965 35.6576 15.1939 36.1029 22.074L31.149 22.3947C30.88 18.2394 27.3058 15.0813 23.149 15.3262C18.9923 15.5711 15.8135 19.1269 16.0344 23.2851C16.2551 27.4432 19.7926 30.6425 23.952 30.4457L24.1865 35.4045Z" fill="white"/>
<path fill-rule="evenodd" clip-rule="evenodd" d="M26.7536 22.089L30.6936 31.7328L39.7899 22.089H26.7536Z" fill="white"/>
</svg>
