<svg width="51" height="51" viewBox="0 0 51 51" fill="none" xmlns="http://www.w3.org/2000/svg">
<path d="M25.2573 2.30112C24.8315 2.32257 24.4143 2.42815 24.0301 2.61167L7.28411 10.6131C6.85068 10.8201 6.46985 11.1213 6.16989 11.4943C5.86993 11.8673 5.65856 12.3025 5.55147 12.7676L1.42011 30.7408C1.32472 31.155 1.31404 31.5838 1.38872 32.0021C1.46339 32.4204 1.62191 32.8195 1.85488 33.176C1.91137 33.2631 1.97212 33.3474 2.03692 33.4287L13.6278 47.8402C13.9279 48.2131 14.3087 48.5142 14.7422 48.7211C15.1756 48.928 15.6505 49.0354 16.1315 49.0353L34.7194 49.031C35.2002 49.0314 35.675 48.9243 36.1084 48.7178C36.5418 48.5113 36.9228 48.2106 37.223 47.8381L48.8097 33.4244C49.1098 33.0513 49.3214 32.6159 49.4285 32.1506C49.5357 31.6852 49.5357 31.2019 49.4286 30.7366L45.2908 12.7634C45.1838 12.2982 44.9724 11.863 44.6724 11.49C44.3725 11.117 43.9916 10.8158 43.5582 10.6088L26.8101 2.61167C26.3269 2.38082 25.7929 2.27403 25.2573 2.30112Z" fill="#326CE5"/>
<path d="M25.2483 0.99991C24.7992 1.02343 24.3595 1.13556 23.9547 1.32973L6.27489 9.77448C5.81735 9.99301 5.41533 10.311 5.09869 10.7047C4.78205 11.0985 4.55891 11.5579 4.44587 12.049L0.0853571 31.0224C-0.0156573 31.4597 -0.0271418 31.9127 0.051585 32.3545C0.130312 32.7964 0.297647 33.218 0.543678 33.5945C0.60353 33.6861 0.667854 33.7748 0.736421 33.8601L12.972 49.0748C13.2887 49.4684 13.6908 49.7862 14.1483 50.0046C14.6058 50.223 15.1071 50.3364 15.6149 50.3363L35.2372 50.332C35.7448 50.3323 36.2459 50.2193 36.7034 50.0013C37.161 49.7833 37.5631 49.4659 37.88 49.0726L50.1113 33.8558C50.4279 33.4622 50.651 33.0028 50.7641 32.5119C50.8772 32.021 50.8774 31.5112 50.7646 31.0202L46.3976 12.0447C46.2843 11.5541 46.061 11.095 45.7444 10.7016C45.4278 10.3083 45.0259 9.99065 44.5686 9.77234L26.8888 1.32759C26.3783 1.08372 25.8142 0.971042 25.2483 0.99991V0.99991ZM25.2568 2.30207C25.7925 2.27498 26.3264 2.38177 26.8096 2.61262L43.5577 10.6097C43.9911 10.8167 44.372 11.1179 44.6719 11.4909C44.9719 11.8639 45.1833 12.2992 45.2904 12.7643L49.4281 30.7375C49.5352 31.2029 49.5352 31.6862 49.4281 32.1515C49.3209 32.6169 49.1094 33.0523 48.8092 33.4254L37.2226 47.839C36.9223 48.2116 36.5413 48.5122 36.1079 48.7188C35.6745 48.9253 35.1997 49.0323 34.7189 49.032L16.131 49.0363C15.65 49.0364 15.1751 48.929 14.7417 48.7221C14.3083 48.5152 13.9274 48.2141 13.6274 47.8412L2.03645 33.4297C1.97165 33.3484 1.9109 33.2641 1.85441 33.1769C1.62144 32.8205 1.46292 32.4213 1.38824 32.0031C1.31357 31.5848 1.32424 31.1559 1.41964 30.7418L5.55099 12.7686C5.65808 12.3035 5.86946 11.8682 6.16942 11.4952C6.46937 11.1222 6.85021 10.821 7.28363 10.6141L24.0296 2.61264C24.4138 2.42912 24.831 2.32354 25.2568 2.30209L25.2568 2.30207Z" fill="white"/>
<path d="M24.0889 40.7962C24.0889 41.4763 23.9333 42.0242 23.6222 42.4399C23.311 42.8557 22.8898 43.0636 22.3584 43.0636C21.816 43.0636 21.3892 42.8915 21.0781 42.5473V44.699H20.314V38.5123H21.012L21.0492 39.0079C21.3603 38.6224 21.7926 38.4297 22.346 38.4297C22.8829 38.4297 23.3069 38.6321 23.618 39.0368C23.9319 39.4415 24.0889 40.0046 24.0889 40.726V40.7962ZM23.3248 40.7095C23.3248 40.2056 23.2174 39.8077 23.0027 39.5159C22.7879 39.224 22.4933 39.0781 22.1188 39.0781C21.6563 39.0781 21.3094 39.2832 21.0781 39.6935V41.8287C21.3066 42.2362 21.6563 42.4399 22.1271 42.4399C22.4933 42.4399 22.7838 42.2954 22.9985 42.0063C23.2161 41.7144 23.3248 41.2822 23.3248 40.7095ZM24.8612 40.7053C24.8612 40.2675 24.9465 39.8738 25.1172 39.5241C25.2907 39.1745 25.5302 38.9046 25.8358 38.7147C26.1442 38.5247 26.4953 38.4297 26.889 38.4297C27.4975 38.4297 27.989 38.6403 28.3634 39.0616C28.7406 39.4828 28.9292 40.0432 28.9292 40.7425V40.7962C28.9292 41.2312 28.8452 41.6222 28.6773 41.9691C28.5121 42.3133 28.2739 42.5817 27.9628 42.7745C27.6544 42.9672 27.2992 43.0636 26.8973 43.0636C26.2915 43.0636 25.8001 42.8529 25.4228 42.4317C25.0484 42.0104 24.8612 41.4529 24.8612 40.759V40.7053ZM25.6293 40.7962C25.6293 41.2918 25.7436 41.6896 25.9721 41.9898C26.2034 42.2899 26.5118 42.4399 26.8973 42.4399C27.2855 42.4399 27.5939 42.2885 27.8224 41.9856C28.0509 41.68 28.1652 41.2532 28.1652 40.7053C28.1652 40.2152 28.0482 39.8188 27.8141 39.5159C27.5828 39.2103 27.2745 39.0575 26.889 39.0575C26.5118 39.0575 26.2075 39.2075 25.9763 39.5076C25.745 39.8077 25.6293 40.2373 25.6293 40.7962ZM29.7015 40.7095C29.7015 40.0239 29.864 39.4732 30.1889 39.0575C30.5138 38.639 30.9392 38.4297 31.465 38.4297C31.9882 38.4297 32.4025 38.6087 32.7082 38.9666V36.6373H33.4722V42.981H32.7701L32.7329 42.5019C32.4273 42.8763 32.0019 43.0636 31.4568 43.0636C30.9392 43.0636 30.5165 42.8516 30.1889 42.4275C29.864 42.0035 29.7015 41.4501 29.7015 40.7673V40.7095ZM30.4656 40.7962C30.4656 41.3028 30.5702 41.6993 30.7795 41.9856C30.9887 42.272 31.2778 42.4151 31.6468 42.4151C32.1313 42.4151 32.4851 42.1976 32.7082 41.7626V39.71C32.4796 39.2887 32.1286 39.0781 31.655 39.0781C31.2806 39.0781 30.9887 39.2227 30.7795 39.5118C30.5702 39.8009 30.4656 40.229 30.4656 40.7962Z" fill="white"/>
<path fill-rule="evenodd" clip-rule="evenodd" d="M15.2159 17.5224L25.4246 14.562L35.6332 17.5224L25.4246 20.4828L15.2159 17.5224Z" fill="white"/>
<path fill-rule="evenodd" clip-rule="evenodd" d="M15.2159 18.656V29.5186L24.7275 34.7873L24.7746 21.4989L15.2159 18.656Z" fill="white"/>
<path fill-rule="evenodd" clip-rule="evenodd" d="M35.6333 18.656V29.5186L26.1217 34.7873L26.0746 21.4989L35.6333 18.656Z" fill="white"/>
</svg>
