<svg width="51" height="51" viewBox="0 0 51 51" fill="none" xmlns="http://www.w3.org/2000/svg">
<path d="M25.2573 1.96701C24.8315 1.98846 24.4143 2.09404 24.0301 2.27756L7.28411 10.279C6.85068 10.486 6.46985 10.7871 6.16989 11.1602C5.86993 11.5332 5.65856 11.9684 5.55147 12.4335L1.42011 30.4067C1.32472 30.8208 1.31404 31.2497 1.38872 31.668C1.46339 32.0863 1.62191 32.4854 1.85488 32.8419C1.91137 32.929 1.97212 33.0133 2.03692 33.0946L13.6278 47.5061C13.9279 47.879 14.3087 48.1801 14.7422 48.387C15.1756 48.5939 15.6505 48.7013 16.1315 48.7012L34.7194 48.6969C35.2002 48.6973 35.675 48.5902 36.1084 48.3837C36.5418 48.1772 36.9228 47.8765 37.223 47.504L48.8097 33.0903C49.1098 32.7172 49.3214 32.2818 49.4285 31.8165C49.5357 31.3511 49.5357 30.8678 49.4286 30.4025L45.2908 12.4293C45.1838 11.9641 44.9724 11.5289 44.6724 11.1559C44.3725 10.7829 43.9916 10.4817 43.5582 10.2747L26.8101 2.27756C26.3269 2.04671 25.7929 1.93993 25.2573 1.96701Z" fill="#326CE5"/>
<path d="M25.2483 0.665682C24.7992 0.689202 24.3595 0.801331 23.9547 0.995505L6.27489 9.44025C5.81735 9.65878 5.41533 9.97673 5.09869 10.3705C4.78205 10.7643 4.55891 11.2237 4.44587 11.7147L0.0853571 30.6881C-0.0156573 31.1255 -0.0271418 31.5785 0.051585 32.0203C0.130312 32.4621 0.297647 32.8838 0.543678 33.2603C0.60353 33.3519 0.667854 33.4405 0.736421 33.5259L12.972 48.7406C13.2887 49.1342 13.6908 49.452 14.1483 49.6704C14.6058 49.8888 15.1071 50.0021 15.6149 50.002L35.2372 49.9977C35.7448 49.9981 36.2459 49.8851 36.7034 49.6671C37.161 49.449 37.5631 49.1316 37.88 48.7384L50.1113 33.5216C50.4279 33.1279 50.651 32.6686 50.7641 32.1777C50.8772 31.6868 50.8774 31.1769 50.7646 30.686L46.3976 11.7105C46.2843 11.2198 46.061 10.7608 45.7444 10.3674C45.4278 9.97404 45.0259 9.65642 44.5686 9.43811L26.8888 0.993363C26.3783 0.749493 25.8142 0.636813 25.2483 0.665682V0.665682ZM25.2568 1.96784C25.7925 1.94076 26.3264 2.04754 26.8096 2.27839L43.5577 10.2755C43.9911 10.4825 44.372 10.7837 44.6719 11.1567C44.9719 11.5297 45.1833 11.9649 45.2904 12.4301L49.4281 30.4033C49.5352 30.8686 49.5352 31.3519 49.4281 31.8173C49.3209 32.2826 49.1094 32.718 48.8092 33.0911L37.2226 47.5048C36.9223 47.8773 36.5413 48.178 36.1079 48.3845C35.6745 48.591 35.1997 48.6981 34.7189 48.6977L16.131 48.702C15.65 48.7021 15.1751 48.5947 14.7417 48.3879C14.3083 48.181 13.9274 47.8799 13.6274 47.507L2.03645 33.0954C1.97165 33.0142 1.9109 32.9298 1.85441 32.8427C1.62144 32.4863 1.46292 32.0871 1.38824 31.6688C1.31357 31.2506 1.32424 30.8217 1.41964 30.4076L5.55099 12.4344C5.65808 11.9692 5.86946 11.534 6.16942 11.161C6.46937 10.788 6.85021 10.4868 7.28363 10.2798L24.0296 2.27841C24.4138 2.09489 24.831 1.98931 25.2568 1.96786L25.2568 1.96784Z" fill="white"/>
<path d="M26.9083 40.4622C26.9083 41.1423 26.7528 41.6902 26.4416 42.1059C26.1305 42.5217 25.7092 42.7296 25.1778 42.7296C24.6354 42.7296 24.2087 42.5575 23.8975 42.2133V44.3651H23.1335V38.1783H23.8315L23.8686 38.6739C24.1798 38.2884 24.612 38.0957 25.1655 38.0957C25.7024 38.0957 26.1264 38.2981 26.4375 38.7028C26.7514 39.1076 26.9083 39.6706 26.9083 40.392V40.4622ZM26.1443 40.3755C26.1443 39.8716 26.0369 39.4738 25.8221 39.1819C25.6074 38.8901 25.3128 38.7441 24.9383 38.7441C24.4757 38.7441 24.1288 38.9492 23.8975 39.3595V41.4947C24.1261 41.9022 24.4757 42.1059 24.9466 42.1059C25.3128 42.1059 25.6032 41.9614 25.818 41.6723C26.0355 41.3804 26.1443 40.9482 26.1443 40.3755ZM29.3078 41.6103L30.4147 38.1783H31.1953L29.5928 42.647H29.0105L27.3915 38.1783H28.1721L29.3078 41.6103Z" fill="white"/>
<path fill-rule="evenodd" clip-rule="evenodd" d="M12.3729 19.6539C12.3729 21.4051 18.2163 22.8248 25.4245 22.8248C32.6326 22.8248 38.476 21.4051 38.476 19.6539V28.2317C38.476 29.9829 32.6326 31.4025 25.4245 31.4025C18.2163 31.4025 12.3729 29.9829 12.3729 28.2317V19.6539Z" fill="white"/>
<path fill-rule="evenodd" clip-rule="evenodd" d="M12.3729 19.654C12.3729 17.9028 18.2163 16.4832 25.4245 16.4832C32.6326 16.4832 38.476 17.9028 38.476 19.654C38.476 21.4052 32.6326 22.8248 25.4245 22.8248C18.2163 22.8248 12.3729 21.4052 12.3729 19.654Z" fill="white"/>
<path d="M38.476 19.654C38.476 21.4052 32.6326 22.8248 25.4245 22.8248C18.2163 22.8248 12.3729 21.4052 12.3729 19.654C12.3729 17.9028 18.2163 16.4832 25.4245 16.4832C32.6326 16.4832 38.476 17.9028 38.476 19.654ZM38.476 19.654V28.2317C38.476 29.9829 32.6326 31.4025 25.4245 31.4025C18.2163 31.4025 12.3729 29.9829 12.3729 28.2317V19.654" stroke="#326CE5" stroke-width="0.74597" stroke-miterlimit="10" stroke-linejoin="round"/>
</svg>
