<svg width="57" height="50" viewBox="0 0 57 50" fill="none" xmlns="http://www.w3.org/2000/svg">
<path fill-rule="evenodd" clip-rule="evenodd" d="M56 42.5C56 45.5382 53.5382 48 50.5 48C47.4618 48 45 45.5382 45 42.5C45 39.4618 47.4618 37 50.5 37C53.5382 37 56 39.4618 56 42.5Z" stroke="#09804C" stroke-width="1.6" stroke-linejoin="round"/>
<path d="M53.25 40.85L49.95 44.15L47.75 41.95" stroke="#09804C" stroke-width="1.6" stroke-linecap="round" stroke-linejoin="round"/>
<path d="M25.2573 1.63522C24.8315 1.65667 24.4143 1.76226 24.0301 1.94577L7.28411 9.94719C6.85068 10.1542 6.46985 10.4554 6.16989 10.8284C5.86993 11.2014 5.65856 11.6366 5.55147 12.1017L1.42011 30.075C1.32472 30.4891 1.31404 30.9179 1.38872 31.3362C1.46339 31.7545 1.62191 32.1536 1.85488 32.5101C1.91137 32.5972 1.97212 32.6815 2.03692 32.7628L13.6278 47.1743C13.9279 47.5473 14.3087 47.8483 14.7422 48.0552C15.1756 48.2621 15.6505 48.3695 16.1315 48.3694L34.7194 48.3651C35.2002 48.3655 35.675 48.2584 36.1084 48.0519C36.5418 47.8454 36.9228 47.5447 37.223 47.1722L48.8097 32.7585C49.1098 32.3854 49.3214 31.95 49.4285 31.4847C49.5357 31.0193 49.5357 30.536 49.4286 30.0707L45.2908 12.0975C45.1838 11.6323 44.9724 11.1971 44.6724 10.8241C44.3725 10.4511 43.9916 10.1499 43.5582 9.94291L26.8101 1.94577C26.3269 1.71492 25.7929 1.60814 25.2573 1.63522Z" fill="#326CE5"/>
<path d="M25.2483 0.334017C24.7992 0.357537 24.3595 0.469666 23.9547 0.66384L6.27489 9.10859C5.81735 9.32711 5.41533 9.64506 5.09869 10.0388C4.78205 10.4326 4.55891 10.8921 4.44587 11.3831L0.0853571 30.3565C-0.0156573 30.7938 -0.0271418 31.2468 0.051585 31.6886C0.130312 32.1305 0.297647 32.5521 0.543678 32.9287C0.60353 33.0202 0.667854 33.1089 0.736421 33.1942L12.972 48.4089C13.2887 48.8025 13.6908 49.1203 14.1483 49.3387C14.6058 49.5571 15.1071 49.6705 15.6149 49.6704L35.2372 49.6661C35.7448 49.6664 36.2459 49.5534 36.7034 49.3354C37.161 49.1174 37.5631 48.8 37.88 48.4068L50.1113 33.1899C50.4279 32.7963 50.651 32.3369 50.7641 31.846C50.8772 31.3551 50.8774 30.8453 50.7646 30.3543L46.3976 11.3788C46.2843 10.8882 46.061 10.4291 45.7444 10.0357C45.4278 9.64237 45.0259 9.32475 44.5686 9.10645L26.8888 0.661698C26.3783 0.417828 25.8142 0.305148 25.2483 0.334017V0.334017ZM25.2568 1.63617C25.7925 1.60909 26.3264 1.71587 26.8096 1.94672L43.5577 9.94386C43.9911 10.1508 44.372 10.452 44.6719 10.825C44.9719 11.198 45.1833 11.6333 45.2904 12.0984L49.4281 30.0716C49.5352 30.537 49.5352 31.0203 49.4281 31.4856C49.3209 31.951 49.1094 32.3864 48.8092 32.7595L37.2226 47.1731C36.9223 47.5457 36.5413 47.8463 36.1079 48.0529C35.6745 48.2594 35.1997 48.3664 34.7189 48.3661L16.131 48.3704C15.65 48.3705 15.1751 48.2631 14.7417 48.0562C14.3083 47.8493 13.9274 47.5482 13.6274 47.1753L2.03645 32.7638C1.97165 32.6825 1.9109 32.5982 1.85441 32.511C1.62144 32.1546 1.46292 31.7554 1.38824 31.3372C1.31357 30.9189 1.32424 30.49 1.41964 30.0759L5.55099 12.1027C5.65808 11.6376 5.86946 11.2023 6.16942 10.8293C6.46937 10.4563 6.85021 10.1551 7.28363 9.94816L24.0296 1.94674C24.4138 1.76323 24.831 1.65765 25.2568 1.63619L25.2568 1.63617Z" fill="white"/>
<path d="M24.0889 40.1304C24.0889 40.8105 23.9333 41.3584 23.6222 41.7742C23.311 42.1899 22.8898 42.3978 22.3584 42.3978C21.816 42.3978 21.3892 42.2257 21.0781 41.8815V44.0333H20.314V37.8465H21.012L21.0492 38.3421C21.3603 37.9567 21.7926 37.7639 22.346 37.7639C22.8829 37.7639 23.3069 37.9663 23.618 38.371C23.9319 38.7758 24.0889 39.3388 24.0889 40.0602V40.1304ZM23.3248 40.0437C23.3248 39.5398 23.2174 39.142 23.0027 38.8501C22.7879 38.5583 22.4933 38.4123 22.1188 38.4123C21.6563 38.4123 21.3094 38.6175 21.0781 39.0277V41.1629C21.3066 41.5704 21.6563 41.7742 22.1271 41.7742C22.4933 41.7742 22.7838 41.6296 22.9985 41.3405C23.2161 41.0487 23.3248 40.6164 23.3248 40.0437ZM26.4884 41.2786L27.5952 37.8465H28.3758L26.7734 42.3152H26.191L24.5721 37.8465H25.3526L26.4884 41.2786ZM30.8455 41.7742C31.1181 41.7742 31.3563 41.6916 31.56 41.5264C31.7638 41.3612 31.8767 41.1547 31.8987 40.9069H32.6214C32.6077 41.1629 32.5196 41.4066 32.3571 41.6379C32.1947 41.8691 31.9772 42.0536 31.7046 42.1913C31.4347 42.329 31.1484 42.3978 30.8455 42.3978C30.2371 42.3978 29.7525 42.1954 29.3918 41.7907C29.0338 41.3832 28.8549 40.827 28.8549 40.1222V39.9941C28.8549 39.5591 28.9347 39.1723 29.0944 38.8336C29.2541 38.4949 29.4826 38.232 29.78 38.0448C30.0801 37.8575 30.4339 37.7639 30.8414 37.7639C31.3425 37.7639 31.7583 37.914 32.0887 38.2141C32.4218 38.5142 32.5994 38.9038 32.6214 39.3829H31.8987C31.8767 39.0938 31.7665 38.857 31.5683 38.6725C31.3728 38.4853 31.1305 38.3917 30.8414 38.3917C30.4532 38.3917 30.1517 38.5321 29.9369 38.8129C29.7249 39.091 29.6189 39.4944 29.6189 40.023V40.1676C29.6189 40.6825 29.7249 41.0789 29.9369 41.357C30.1489 41.6351 30.4518 41.7742 30.8455 41.7742Z" fill="white"/>
<path d="M38.476 19.7906C38.476 21.5418 32.6326 22.9614 25.4245 22.9614C18.2163 22.9614 12.3729 21.5418 12.3729 19.7906C12.3729 18.0394 18.2163 16.6198 25.4245 16.6198C32.6326 16.6198 38.476 18.0394 38.476 19.7906ZM38.476 19.7906V28.3683C38.476 30.1195 32.6326 31.5391 25.4245 31.5391C18.2163 31.5391 12.3729 30.1195 12.3729 28.3683V19.7906" stroke="white" stroke-width="1.49194" stroke-miterlimit="10" stroke-linejoin="round" stroke-dasharray="5.97 1.49"/>
</svg>
