<svg width="51" height="51" viewBox="0 0 51 51" fill="none" xmlns="http://www.w3.org/2000/svg">
<path d="M25.2573 1.96933C24.8315 1.99078 24.4143 2.09636 24.0301 2.27988L7.28411 10.2813C6.85068 10.4883 6.46985 10.7895 6.16989 11.1625C5.86993 11.5355 5.65856 11.9707 5.55147 12.4359L1.42011 30.4091C1.32472 30.8232 1.31404 31.252 1.38872 31.6703C1.46339 32.0886 1.62191 32.4877 1.85488 32.8442C1.91137 32.9313 1.97212 33.0157 2.03692 33.0969L13.6278 47.5084C13.9279 47.8814 14.3087 48.1824 14.7422 48.3893C15.1756 48.5962 15.6505 48.7036 16.1315 48.7035L34.7194 48.6992C35.2002 48.6996 35.675 48.5925 36.1084 48.386C36.5418 48.1795 36.9228 47.8788 37.223 47.5063L48.8097 33.0926C49.1098 32.7195 49.3214 32.2841 49.4285 31.8188C49.5357 31.3535 49.5357 30.8701 49.4286 30.4048L45.2908 12.4316C45.1838 11.9664 44.9724 11.5312 44.6724 11.1582C44.3725 10.7852 43.9916 10.484 43.5582 10.277L26.8101 2.27988C26.3269 2.04903 25.7929 1.94225 25.2573 1.96933Z" fill="#326CE5"/>
<path d="M25.2483 0.668001C24.7992 0.691521 24.3595 0.80365 23.9547 0.997824L6.27489 9.44257C5.81735 9.6611 5.41533 9.97905 5.09869 10.3728C4.78205 10.7666 4.55891 11.226 4.44587 11.7171L0.0853571 30.6904C-0.0156573 31.1278 -0.0271418 31.5808 0.051585 32.0226C0.130312 32.4645 0.297647 32.8861 0.543678 33.2626C0.60353 33.3542 0.667854 33.4428 0.736421 33.5282L12.972 48.7429C13.2887 49.1365 13.6908 49.4543 14.1483 49.6727C14.6058 49.8911 15.1071 50.0044 15.6149 50.0044L35.2372 50.0001C35.7448 50.0004 36.2459 49.8874 36.7034 49.6694C37.161 49.4514 37.5631 49.134 37.88 48.7407L50.1113 33.5239C50.4279 33.1302 50.651 32.6709 50.7641 32.18C50.8772 31.6891 50.8774 31.1793 50.7646 30.6883L46.3976 11.7128C46.2843 11.2221 46.061 10.7631 45.7444 10.3697C45.4278 9.97636 45.0259 9.65874 44.5686 9.44043L26.8888 0.995683C26.3783 0.751813 25.8142 0.639133 25.2483 0.668001V0.668001ZM25.2568 1.97016C25.7925 1.94308 26.3264 2.04986 26.8096 2.28071L43.5577 10.2778C43.9911 10.4848 44.372 10.786 44.6719 11.159C44.9719 11.532 45.1833 11.9673 45.2904 12.4324L49.4281 30.4056C49.5352 30.871 49.5352 31.3543 49.4281 31.8196C49.3209 32.2849 49.1094 32.7203 48.8092 33.0934L37.2226 47.5071C36.9223 47.8797 36.5413 48.1803 36.1079 48.3868C35.6745 48.5934 35.1997 48.7004 34.7189 48.7001L16.131 48.7044C15.65 48.7044 15.1751 48.5971 14.7417 48.3902C14.3083 48.1833 13.9274 47.8822 13.6274 47.5093L2.03645 33.0977C1.97165 33.0165 1.9109 32.9322 1.85441 32.845C1.62144 32.4886 1.46292 32.0894 1.38824 31.6712C1.31357 31.2529 1.32424 30.824 1.41964 30.4099L5.55099 12.4367C5.65808 11.9716 5.86946 11.5363 6.16942 11.1633C6.46937 10.7903 6.85021 10.4891 7.28363 10.2821L24.0296 2.28073C24.4138 2.09721 24.831 1.99163 25.2568 1.97018L25.2568 1.97016Z" fill="white"/>
<path d="M25.2935 41.533C25.1778 41.5137 25.0526 41.5041 24.9177 41.5041C24.4166 41.5041 24.0765 41.7174 23.8975 42.1442V45.316H23.1335V40.8474H23.8769L23.8893 41.3636C24.1398 40.9644 24.495 40.7648 24.9548 40.7648C25.1035 40.7648 25.2164 40.7841 25.2935 40.8226V41.533ZM28.6016 44.1307C28.6016 43.9242 28.5231 43.7645 28.3662 43.6517C28.212 43.536 27.9408 43.4369 27.5526 43.3543C27.1671 43.2717 26.8601 43.1726 26.6316 43.0569C26.4058 42.9413 26.2379 42.8036 26.1277 42.6439C26.0204 42.4842 25.9667 42.2943 25.9667 42.074C25.9667 41.7078 26.1209 41.398 26.4292 41.1447C26.7404 40.8914 27.1368 40.7648 27.6187 40.7648C28.1253 40.7648 28.5355 40.8956 28.8494 41.1571C29.166 41.4187 29.3244 41.7532 29.3244 42.1607H28.5562C28.5562 41.9515 28.4667 41.7711 28.2877 41.6197C28.1115 41.4683 27.8885 41.3925 27.6187 41.3925C27.3406 41.3925 27.1231 41.4531 26.9661 41.5743C26.8092 41.6954 26.7307 41.8537 26.7307 42.0492C26.7307 42.2337 26.8037 42.3727 26.9496 42.4663C27.0955 42.56 27.3585 42.6494 27.7384 42.7348C28.1212 42.8201 28.4309 42.922 28.6677 43.0404C28.9045 43.1588 29.0793 43.302 29.1922 43.4699C29.3078 43.6351 29.3657 43.8375 29.3657 44.077C29.3657 44.4763 29.206 44.797 28.8866 45.0393C28.5672 45.2789 28.1528 45.3986 27.6435 45.3986C27.2855 45.3986 26.9689 45.3353 26.6936 45.2087C26.4182 45.082 26.2021 44.9058 26.0451 44.68C25.891 44.4515 25.8139 44.2051 25.8139 43.9408H26.5779C26.5917 44.1968 26.6936 44.4006 26.8835 44.552C27.0763 44.7007 27.3296 44.775 27.6435 44.775C27.9326 44.775 28.1638 44.7172 28.3373 44.6016C28.5135 44.4832 28.6016 44.3262 28.6016 44.1307Z" fill="white"/>
<path fill-rule="evenodd" clip-rule="evenodd" d="M20.5648 13.0074H38.9614V25.9298H20.5648V13.0074Z" fill="#326CE5" stroke="white" stroke-width="1.49147" stroke-miterlimit="10" stroke-linecap="square" stroke-linejoin="round" stroke-dasharray="4.47 4.47"/>
<path fill-rule="evenodd" clip-rule="evenodd" d="M16.2264 16.9863H34.6231V29.9086H16.2264V16.9863Z" fill="#326CE5" stroke="white" stroke-width="1.49188" stroke-miterlimit="10" stroke-linecap="square" stroke-linejoin="round" stroke-dasharray="4.48 4.48"/>
<path fill-rule="evenodd" clip-rule="evenodd" d="M11.888 20.9657H30.2847V33.888H11.888V20.9657Z" fill="white"/>
<path fill-rule="evenodd" clip-rule="evenodd" d="M11.888 20.9657H30.2847V33.888H11.888V20.9657Z" stroke="white" stroke-width="1.49194" stroke-miterlimit="10" stroke-linejoin="round"/>
</svg>
