<svg width="58" height="51" viewBox="0 0 58 51" fill="none" xmlns="http://www.w3.org/2000/svg">
<path fill-rule="evenodd" clip-rule="evenodd" d="M57 42.5C57 45.5382 54.5382 48 51.5011 48.0011C48.4618 48 46 45.5382 46 42.5C46 39.4618 48.4618 37 51.5 37C54.5382 37 57 39.4618 57 42.5Z" stroke="#CF4A22" stroke-width="1.6" stroke-linejoin="round"/>
<path d="M49.0246 40.0249L53.9746 44.9749" stroke="#CF4A22" stroke-width="1.6" stroke-linecap="round" stroke-linejoin="round"/>
<path d="M53.9746 40.0249L49.0246 44.9749" stroke="#CF4A22" stroke-width="1.6" stroke-linecap="round" stroke-linejoin="round"/>
<path d="M25.2573 1.97165C24.8315 1.9931 24.4143 2.09868 24.0301 2.2822L7.28411 10.2836C6.85068 10.4906 6.46985 10.7918 6.16989 11.1648C5.86993 11.5378 5.65856 11.973 5.55147 12.4382L1.42011 30.4114C1.32472 30.8255 1.31404 31.2544 1.38872 31.6726C1.46339 32.0909 1.62191 32.4901 1.85488 32.8465C1.91137 32.9336 1.97212 33.018 2.03692 33.0992L13.6278 47.5108C13.9279 47.8837 14.3087 48.1848 14.7422 48.3917C15.1756 48.5985 15.6505 48.7059 16.1315 48.7058L34.7194 48.7016C35.2002 48.7019 35.675 48.5948 36.1084 48.3883C36.5418 48.1818 36.9228 47.8811 37.223 47.5086L48.8097 33.095C49.1098 32.7219 49.3214 32.2865 49.4285 31.8211C49.5357 31.3558 49.5357 30.8725 49.4286 30.4071L45.2908 12.4339C45.1838 11.9687 44.9724 11.5335 44.6724 11.1605C44.3725 10.7875 43.9916 10.4863 43.5582 10.2793L26.8101 2.2822C26.3269 2.05135 25.7929 1.94457 25.2573 1.97165Z" fill="#326CE5"/>
<path d="M25.2483 0.670442C24.7992 0.693963 24.3595 0.806092 23.9547 1.00027L6.27489 9.44502C5.81735 9.66354 5.41533 9.98149 5.09869 10.3753C4.78205 10.769 4.55891 11.2285 4.44587 11.7195L0.0853571 30.6929C-0.0156573 31.1302 -0.0271418 31.5832 0.051585 32.0251C0.130312 32.4669 0.297647 32.8886 0.543678 33.2651C0.60353 33.3567 0.667854 33.4453 0.736421 33.5306L12.972 48.7453C13.2887 49.139 13.6908 49.4568 14.1483 49.6751C14.6058 49.8935 15.1071 50.0069 15.6149 50.0068L35.2372 50.0025C35.7448 50.0029 36.2459 49.8898 36.7034 49.6718C37.161 49.4538 37.5631 49.1364 37.88 48.7432L50.1113 33.5264C50.4279 33.1327 50.651 32.6734 50.7641 32.1825C50.8772 31.6916 50.8774 31.1817 50.7646 30.6907L46.3976 11.7152C46.2843 11.2246 46.061 10.7656 45.7444 10.3722C45.4278 9.9788 45.0259 9.66118 44.5686 9.44287L26.8888 0.998124C26.3783 0.754254 25.8142 0.641574 25.2483 0.670442V0.670442ZM25.2568 1.9726C25.7925 1.94552 26.3264 2.0523 26.8096 2.28315L43.5577 10.2803C43.9911 10.4873 44.372 10.7885 44.6719 11.1615C44.9719 11.5345 45.1833 11.9697 45.2904 12.4348L49.4281 30.408C49.5352 30.8734 49.5352 31.3567 49.4281 31.822C49.3209 32.2874 49.1094 32.7228 48.8092 33.0959L37.2226 47.5096C36.9223 47.8821 36.5413 48.1828 36.1079 48.3893C35.6745 48.5958 35.1997 48.7029 34.7189 48.7025L16.131 48.7068C15.65 48.7069 15.1751 48.5995 14.7417 48.3926C14.3083 48.1857 13.9274 47.8846 13.6274 47.5117L2.03645 33.1002C1.97165 33.0189 1.9109 32.9346 1.85441 32.8475C1.62144 32.491 1.46292 32.0919 1.38824 31.6736C1.31357 31.2553 1.32424 30.8265 1.41964 30.4123L5.55099 12.4391C5.65808 11.974 5.86946 11.5388 6.16942 11.1658C6.46937 10.7928 6.85021 10.4916 7.28363 10.2846L24.0296 2.28317C24.4138 2.09965 24.831 1.99407 25.2568 1.97262L25.2568 1.9726Z" fill="white"/>
<path d="M17.2772 41.6653C17.2772 41.4588 17.1987 41.2991 17.0418 41.1862C16.8876 41.0706 16.6164 40.9714 16.2282 40.8888C15.8427 40.8062 15.5357 40.7071 15.3072 40.5915C15.0814 40.4758 14.9135 40.3382 14.8033 40.1785C14.696 40.0188 14.6423 39.8288 14.6423 39.6085C14.6423 39.2423 14.7965 38.9326 15.1048 38.6793C15.416 38.426 15.8124 38.2993 16.2943 38.2993C16.8009 38.2993 17.2111 38.4301 17.525 38.6917C17.8416 38.9532 18 39.2878 18 39.6953H17.2318C17.2318 39.486 17.1423 39.3057 16.9633 39.1542C16.7871 39.0028 16.5641 38.9271 16.2943 38.9271C16.0162 38.9271 15.7987 38.9877 15.6417 39.1088C15.4848 39.23 15.4063 39.3883 15.4063 39.5838C15.4063 39.7682 15.4793 39.9073 15.6252 40.0009C15.7711 40.0945 16.0341 40.184 16.414 40.2693C16.7967 40.3547 17.1065 40.4566 17.3433 40.575C17.5801 40.6933 17.7549 40.8365 17.8678 41.0045C17.9834 41.1697 18.0413 41.372 18.0413 41.6116C18.0413 42.0108 17.8816 42.3316 17.5622 42.5739C17.2428 42.8134 16.8284 42.9332 16.319 42.9332C15.9611 42.9332 15.6445 42.8699 15.3691 42.7432C15.0938 42.6166 14.8777 42.4403 14.7207 42.2146C14.5666 41.986 14.4895 41.7396 14.4895 41.4753H15.2535C15.2673 41.7314 15.3691 41.9351 15.5591 42.0865C15.7519 42.2352 16.0052 42.3096 16.319 42.3096C16.6081 42.3096 16.8394 42.2517 17.0129 42.1361C17.1891 42.0177 17.2772 41.8608 17.2772 41.6653ZM20.891 42.9332C20.2852 42.9332 19.7924 42.7349 19.4124 42.3385C19.0325 41.9392 18.8425 41.4065 18.8425 40.7402V40.5997C18.8425 40.1565 18.9265 39.7613 19.0944 39.4144C19.2651 39.0648 19.5019 38.7922 19.8048 38.5967C20.1104 38.3984 20.4408 38.2993 20.796 38.2993C21.3769 38.2993 21.8285 38.4907 22.1506 38.8734C22.4727 39.2561 22.6338 39.804 22.6338 40.5171V40.8351H19.6065C19.6175 41.2757 19.7456 41.6322 19.9906 41.9048C20.2384 42.1746 20.5523 42.3096 20.9323 42.3096C21.2021 42.3096 21.4306 42.2545 21.6178 42.1444C21.8051 42.0342 21.9689 41.8883 22.1093 41.7066L22.576 42.07C22.2015 42.6455 21.6399 42.9332 20.891 42.9332ZM20.796 38.9271C20.4876 38.9271 20.2288 39.04 20.0195 39.2657C19.8103 39.4888 19.6809 39.8026 19.6313 40.2074H21.8698V40.1496C21.8477 39.7613 21.7431 39.4612 21.5559 39.2492C21.3687 39.0345 21.1154 38.9271 20.796 38.9271ZM25.3142 42.3096C25.5868 42.3096 25.8249 42.227 26.0287 42.0618C26.2324 41.8966 26.3453 41.6901 26.3673 41.4423H27.0901C27.0763 41.6983 26.9882 41.942 26.8258 42.1733C26.6633 42.4045 26.4458 42.589 26.1732 42.7267C25.9034 42.8644 25.6171 42.9332 25.3142 42.9332C24.7057 42.9332 24.2211 42.7308 23.8604 42.3261C23.5025 41.9186 23.3235 41.3624 23.3235 40.6576V40.5295C23.3235 40.0945 23.4034 39.7077 23.5631 39.369C23.7228 39.0303 23.9513 38.7674 24.2486 38.5802C24.5488 38.3929 24.9026 38.2993 25.3101 38.2993C25.8112 38.2993 26.2269 38.4494 26.5573 38.7495C26.8905 39.0496 27.0681 39.4392 27.0901 39.9183H26.3673C26.3453 39.6292 26.2352 39.3924 26.0369 39.2079C25.8414 39.0207 25.5992 38.9271 25.3101 38.9271C24.9218 38.9271 24.6203 39.0675 24.4056 39.3483C24.1936 39.6264 24.0876 40.0298 24.0876 40.5584V40.703C24.0876 41.2179 24.1936 41.6143 24.4056 41.8924C24.6176 42.1705 24.9205 42.3096 25.3142 42.3096ZM30.1091 39.0675C29.9935 39.0482 29.8682 39.0386 29.7333 39.0386C29.2322 39.0386 28.8921 39.252 28.7132 39.6787V42.8506H27.9491V38.3819H28.6925L28.7049 38.8982C28.9555 38.4989 29.3106 38.2993 29.7705 38.2993C29.9191 38.2993 30.032 38.3186 30.1091 38.3571V39.0675ZM32.5871 42.9332C31.9814 42.9332 31.4885 42.7349 31.1086 42.3385C30.7286 41.9392 30.5386 41.4065 30.5386 40.7402V40.5997C30.5386 40.1565 30.6226 39.7613 30.7906 39.4144C30.9613 39.0648 31.1981 38.7922 31.5009 38.5967C31.8065 38.3984 32.1369 38.2993 32.4921 38.2993C33.0731 38.2993 33.5246 38.4907 33.8468 38.8734C34.1689 39.2561 34.33 39.804 34.33 40.5171V40.8351H31.3027C31.3137 41.2757 31.4417 41.6322 31.6868 41.9048C31.9346 42.1746 32.2485 42.3096 32.6284 42.3096C32.8982 42.3096 33.1268 42.2545 33.314 42.1444C33.5012 42.0342 33.665 41.8883 33.8055 41.7066L34.2722 42.07C33.8977 42.6455 33.336 42.9332 32.5871 42.9332ZM32.4921 38.9271C32.1837 38.9271 31.9249 39.04 31.7157 39.2657C31.5064 39.4888 31.377 39.8026 31.3275 40.2074H33.5659V40.1496C33.5439 39.7613 33.4393 39.4612 33.252 39.2492C33.0648 39.0345 32.8115 38.9271 32.4921 38.9271ZM36.2546 37.2999V38.3819H37.0888V38.9725H36.2546V41.7437C36.2546 41.9227 36.2917 42.0576 36.3661 42.1485C36.4404 42.2366 36.5671 42.2806 36.746 42.2806C36.8341 42.2806 36.9553 42.2641 37.1095 42.2311V42.8506C36.9085 42.9057 36.713 42.9332 36.523 42.9332C36.1816 42.9332 35.9242 42.8299 35.7507 42.6234C35.5772 42.4169 35.4905 42.1237 35.4905 41.7437V38.9725H34.6769V38.3819H35.4905V37.2999H36.2546Z" fill="white"/>
<path d="M26.7246 20.1681H37.1799" stroke="white" stroke-width="2.23791" stroke-miterlimit="10" stroke-linejoin="round"/>
<path d="M20.7569 14.2003H37.18" stroke="white" stroke-width="2.23861" stroke-miterlimit="10" stroke-linejoin="round"/>
<path d="M13.6691 14.2003H17.7808" stroke="white" stroke-width="2.23791" stroke-miterlimit="10" stroke-linejoin="round"/>
<path fill-rule="evenodd" clip-rule="evenodd" d="M19.1236 21.1292C19.1236 17.8398 21.9742 15.1732 25.4907 15.1732C29.0072 15.1732 31.8579 17.8398 31.8579 21.1292H28.8799C28.8799 19.4845 27.3625 18.1512 25.4907 18.1512C23.6189 18.1512 22.1016 19.4845 22.1016 21.1292H19.1236Z" fill="white" stroke="#326CE5" stroke-width="0.74597" stroke-miterlimit="10" stroke-linecap="square"/>
<path d="M26.7246 26.1356H37.1799" stroke="white" stroke-width="2.23791" stroke-miterlimit="10" stroke-linejoin="round"/>
<path d="M20.7569 32.1034H37.18" stroke="white" stroke-width="2.23791" stroke-miterlimit="10" stroke-linejoin="round"/>
<path d="M13.6691 32.1034H17.7807" stroke="white" stroke-width="2.23791" stroke-miterlimit="10" stroke-linejoin="round"/>
<path fill-rule="evenodd" clip-rule="evenodd" d="M17.5555 20.9515H33.3912V31.2659H17.5555V20.9515Z" fill="white" stroke="#326CE5" stroke-width="0.74597" stroke-miterlimit="10" stroke-linecap="square"/>
<path d="M25.4733 27.6739C26.3378 27.6739 27.0386 26.9731 27.0386 26.1087C27.0386 25.2442 26.3378 24.5435 25.4733 24.5435C24.6089 24.5435 23.9081 25.2442 23.9081 26.1087C23.9081 26.9731 24.6089 27.6739 25.4733 27.6739Z" fill="#326CE5"/>
</svg>
