<svg width="57" height="50" viewBox="0 0 57 50" fill="none" xmlns="http://www.w3.org/2000/svg">
<path fill-rule="evenodd" clip-rule="evenodd" d="M56 43.5C56 46.5382 53.5382 49 50.5 49C47.4618 49 45 46.5382 45 43.5C45 40.4618 47.4618 38 50.5 38C53.5382 38 56 40.4618 56 43.5Z" stroke="#FFC010" stroke-width="1.6" stroke-linejoin="round"/>
<path d="M50.5 43.0416V46.25" stroke="#FFC010" stroke-width="1.6" stroke-linecap="round" stroke-linejoin="round"/>
<path fill-rule="evenodd" clip-rule="evenodd" d="M50.5 39.8334C49.994 39.8334 49.5833 40.2459 49.5833 40.75C49.5833 41.2542 49.994 41.6667 50.5 41.6667C51.0042 41.6667 51.4167 41.2542 51.4167 40.75C51.4167 40.2459 51.0042 39.8334 50.5 39.8334Z" fill="#FFC010"/>
<path d="M25.2561 1.63266C24.8303 1.65411 24.4131 1.75969 24.0289 1.94321L7.2829 9.94463C6.84948 10.1516 6.46865 10.4528 6.16869 10.8258C5.86873 11.1988 5.65735 11.634 5.55026 12.0992L1.41891 30.0724C1.32351 30.4865 1.31283 30.9154 1.38751 31.3336C1.46219 31.7519 1.62071 32.1511 1.85368 32.5075C1.91017 32.5946 1.97092 32.679 2.03572 32.7602L13.6266 47.1718C13.9267 47.5447 14.3075 47.8458 14.741 48.0527C15.1744 48.2596 15.6493 48.3669 16.1303 48.3669L34.7182 48.3626C35.199 48.3629 35.6738 48.2559 36.1072 48.0493C36.5406 47.8428 36.9216 47.5421 37.2218 47.1696L48.8085 32.756C49.1086 32.3829 49.3202 31.9475 49.4273 31.4821C49.5345 31.0168 49.5345 30.5335 49.4274 30.0681L45.2896 12.0949C45.1825 11.6298 44.9712 11.1945 44.6712 10.8215C44.3713 10.4485 43.9904 10.1473 43.557 9.94034L26.8088 1.94321C26.3257 1.71236 25.7917 1.60558 25.2561 1.63266Z" fill="#326CE5"/>
<path d="M25.2483 0.331453C24.7992 0.354973 24.3595 0.467103 23.9547 0.661276L6.27489 9.10603C5.81735 9.32455 5.41533 9.6425 5.09869 10.0363C4.78205 10.43 4.55891 10.8895 4.44587 11.3805L0.0853571 30.3539C-0.0156573 30.7912 -0.0271418 31.2443 0.051585 31.6861C0.130312 32.1279 0.297647 32.5496 0.543678 32.9261C0.60353 33.0177 0.667854 33.1063 0.736421 33.1917L12.972 48.4063C13.2887 48.8 13.6908 49.1178 14.1483 49.3362C14.6058 49.5545 15.1071 49.6679 15.6149 49.6678L35.2372 49.6635C35.7448 49.6639 36.2459 49.5508 36.7034 49.3328C37.161 49.1148 37.5631 48.7974 37.88 48.4042L50.1113 33.1874C50.4279 32.7937 50.651 32.3344 50.7641 31.8435C50.8772 31.3526 50.8774 30.8427 50.7646 30.3517L46.3976 11.3762C46.2843 10.8856 46.061 10.4266 45.7444 10.0332C45.4278 9.63981 45.0259 9.32219 44.5686 9.10389L26.8888 0.659135C26.3783 0.415265 25.8142 0.302585 25.2483 0.331453V0.331453ZM25.2568 1.63361C25.7925 1.60653 26.3264 1.71331 26.8096 1.94416L43.5577 9.94129C43.9911 10.1483 44.372 10.4495 44.6719 10.8225C44.9719 11.1955 45.1833 11.6307 45.2904 12.0958L49.4281 30.0691C49.5352 30.5344 49.5352 31.0177 49.4281 31.4831C49.3209 31.9484 49.1094 32.3838 48.8092 32.7569L37.2226 47.1706C36.9223 47.5431 36.5413 47.8438 36.1079 48.0503C35.6745 48.2568 35.1997 48.3639 34.7189 48.3635L16.131 48.3678C15.65 48.3679 15.1751 48.2605 14.7417 48.0536C14.3083 47.8467 13.9274 47.5457 13.6274 47.1727L2.03645 32.7612C1.97165 32.68 1.9109 32.5956 1.85441 32.5085C1.62144 32.152 1.46292 31.7529 1.38824 31.3346C1.31357 30.9163 1.32424 30.4875 1.41964 30.0734L5.55099 12.1002C5.65808 11.635 5.86946 11.1998 6.16942 10.8268C6.46937 10.4538 6.85021 10.1526 7.28363 9.9456L24.0296 1.94418C24.4138 1.76066 24.831 1.65508 25.2568 1.63363L25.2568 1.63361Z" fill="white"/>
<path d="M22.8157 41.1276C22.8157 40.9211 22.7372 40.7614 22.5803 40.6485C22.4261 40.5328 22.1549 40.4337 21.7667 40.3511C21.3812 40.2685 21.0742 40.1694 20.8457 40.0538C20.6199 39.9381 20.452 39.8005 20.3418 39.6408C20.2345 39.4811 20.1808 39.2911 20.1808 39.0708C20.1808 38.7046 20.335 38.3949 20.6433 38.1416C20.9545 37.8883 21.3509 37.7616 21.8328 37.7616C22.3394 37.7616 22.7496 37.8924 23.0635 38.154C23.3802 38.4155 23.5385 38.7501 23.5385 39.1575H22.7703C22.7703 38.9483 22.6808 38.768 22.5018 38.6165C22.3256 38.4651 22.1026 38.3894 21.8328 38.3894C21.5547 38.3894 21.3372 38.4499 21.1802 38.5711C21.0233 38.6922 20.9448 38.8506 20.9448 39.046C20.9448 39.2305 21.0178 39.3696 21.1637 39.4632C21.3096 39.5568 21.5726 39.6463 21.9525 39.7316C22.3353 39.817 22.645 39.9188 22.8818 40.0372C23.1186 40.1556 23.2934 40.2988 23.4063 40.4668C23.5219 40.632 23.5798 40.8343 23.5798 41.0739C23.5798 41.4731 23.4201 41.7939 23.1007 42.0362C22.7813 42.2757 22.3669 42.3955 21.8576 42.3955C21.4996 42.3955 21.183 42.3321 20.9077 42.2055C20.6323 42.0788 20.4162 41.9026 20.2592 41.6768C20.1051 41.4483 20.028 41.2019 20.028 40.9376H20.792C20.8058 41.1936 20.9077 41.3974 21.0976 41.5488C21.2904 41.6975 21.5437 41.7718 21.8576 41.7718C22.1467 41.7718 22.3779 41.714 22.5514 41.5984C22.7276 41.48 22.8157 41.323 22.8157 41.1276ZM25.6117 36.7621V37.8442H26.446V38.4348H25.6117V41.206C25.6117 41.385 25.6489 41.5199 25.7232 41.6108C25.7976 41.6989 25.9242 41.7429 26.1032 41.7429C26.1913 41.7429 26.3125 41.7264 26.4666 41.6934V42.3129C26.2656 42.3679 26.0702 42.3955 25.8802 42.3955C25.5388 42.3955 25.2813 42.2922 25.1079 42.0857C24.9344 41.8792 24.8477 41.586 24.8477 41.206V38.4348H24.0341V37.8442H24.8477V36.7621H25.6117ZM29.9441 41.1276C29.9441 40.9211 29.8656 40.7614 29.7087 40.6485C29.5545 40.5328 29.2833 40.4337 28.8951 40.3511C28.5096 40.2685 28.2026 40.1694 27.9741 40.0538C27.7483 39.9381 27.5804 39.8005 27.4702 39.6408C27.3628 39.4811 27.3092 39.2911 27.3092 39.0708C27.3092 38.7046 27.4633 38.3949 27.7717 38.1416C28.0828 37.8883 28.4793 37.7616 28.9612 37.7616C29.4678 37.7616 29.878 37.8924 30.1919 38.154C30.5085 38.4155 30.6668 38.7501 30.6668 39.1575H29.8987C29.8987 38.9483 29.8092 38.768 29.6302 38.6165C29.454 38.4651 29.231 38.3894 28.9612 38.3894C28.6831 38.3894 28.4656 38.4499 28.3086 38.5711C28.1517 38.6922 28.0732 38.8506 28.0732 39.046C28.0732 39.2305 28.1462 39.3696 28.2921 39.4632C28.438 39.5568 28.701 39.6463 29.0809 39.7316C29.4636 39.817 29.7734 39.9188 30.0102 40.0372C30.247 40.1556 30.4218 40.2988 30.5347 40.4668C30.6503 40.632 30.7081 40.8343 30.7081 41.0739C30.7081 41.4731 30.5485 41.7939 30.2291 42.0362C29.9097 42.2757 29.4953 42.3955 28.9859 42.3955C28.628 42.3955 28.3114 42.3321 28.036 42.2055C27.7607 42.0788 27.5446 41.9026 27.3876 41.6768C27.2334 41.4483 27.1563 41.2019 27.1563 40.9376H27.9204C27.9342 41.1936 28.036 41.3974 28.226 41.5488C28.4188 41.6975 28.6721 41.7718 28.9859 41.7718C29.275 41.7718 29.5063 41.714 29.6798 41.5984C29.856 41.48 29.9441 41.323 29.9441 41.1276Z" fill="white"/>
<path fill-rule="evenodd" clip-rule="evenodd" d="M20.5633 11.4773H38.9599V24.3996H20.5633V11.4773Z" stroke="white" stroke-width="1.49188" stroke-miterlimit="10" stroke-linecap="square" stroke-linejoin="round" stroke-dasharray="4.48 4.48"/>
<path fill-rule="evenodd" clip-rule="evenodd" d="M16.225 15.4563H34.6216V28.3786H16.225V15.4563Z" fill="#326CE5" stroke="white" stroke-width="1.49188" stroke-miterlimit="10" stroke-linecap="square" stroke-linejoin="round" stroke-dasharray="4.48 4.48"/>
<path fill-rule="evenodd" clip-rule="evenodd" d="M11.8866 19.4353H30.2833V32.3576H11.8866V19.4353Z" fill="white"/>
<path fill-rule="evenodd" clip-rule="evenodd" d="M11.8866 19.4353H30.2833V32.3576H11.8866V19.4353Z" stroke="white" stroke-width="1.49194" stroke-miterlimit="10" stroke-linejoin="round"/>
<path fill-rule="evenodd" clip-rule="evenodd" d="M13.3897 23.0284C13.3897 21.8177 16.8347 20.8363 21.0843 20.8363C25.3339 20.8363 28.779 21.8177 28.779 23.0284C28.779 24.2391 25.3339 25.2205 21.0843 25.2205C16.8347 25.2205 13.3897 24.2391 13.3897 23.0284Z" fill="white"/>
<path d="M28.779 23.0284C28.779 24.2391 25.3339 25.2205 21.0843 25.2205C16.8347 25.2205 13.3897 24.2391 13.3897 23.0284C13.3897 21.8177 16.8347 20.8363 21.0843 20.8363C25.3339 20.8363 28.779 21.8177 28.779 23.0284ZM28.779 23.0284V28.9585C28.779 30.1692 25.3339 31.1507 21.0843 31.1507C16.8347 31.1507 13.3897 30.1692 13.3897 28.9585V23.0284" stroke="#326CE5" stroke-width="1.49194" stroke-miterlimit="10" stroke-linejoin="round"/>
</svg>
