<svg width="51" height="51" viewBox="0 0 51 51" fill="none" xmlns="http://www.w3.org/2000/svg">
<path d="M25.2573 2.29868C24.8315 2.32013 24.4143 2.42571 24.0301 2.60922L7.28411 10.6106C6.85068 10.8176 6.46985 11.1188 6.16989 11.4918C5.86993 11.8648 5.65856 12.3001 5.55147 12.7652L1.42011 30.7384C1.32472 31.1525 1.31404 31.5814 1.38872 31.9997C1.46339 32.4179 1.62191 32.8171 1.85488 33.1735C1.91137 33.2607 1.97212 33.345 2.03692 33.4262L13.6278 47.8378C13.9279 48.2107 14.3087 48.5118 14.7422 48.7187C15.1756 48.9256 15.6505 49.033 16.1315 49.0329L34.7194 49.0286C35.2002 49.0289 35.675 48.9219 36.1084 48.7154C36.5418 48.5088 36.9228 48.2082 37.223 47.8356L48.8097 33.422C49.1098 33.0489 49.3214 32.6135 49.4285 32.1481C49.5357 31.6828 49.5357 31.1995 49.4286 30.7341L45.2908 12.7609C45.1838 12.2958 44.9724 11.8605 44.6724 11.4875C44.3725 11.1145 43.9916 10.8133 43.5582 10.6064L26.8101 2.60922C26.3269 2.37838 25.7929 2.27159 25.2573 2.29868Z" fill="#326CE5"/>
<path d="M25.2483 0.997347C24.7992 1.02087 24.3595 1.133 23.9547 1.32717L6.27489 9.77192C5.81735 9.99044 5.41533 10.3084 5.09869 10.7022C4.78205 11.0959 4.55891 11.5554 4.44587 12.0464L0.0853571 31.0198C-0.0156573 31.4571 -0.0271418 31.9101 0.051585 32.352C0.130312 32.7938 0.297647 33.2155 0.543678 33.592C0.60353 33.6836 0.667854 33.7722 0.736421 33.8575L12.972 49.0722C13.2887 49.4659 13.6908 49.7837 14.1483 50.002C14.6058 50.2204 15.1071 50.3338 15.6149 50.3337L35.2372 50.3294C35.7448 50.3298 36.2459 50.2167 36.7034 49.9987C37.161 49.7807 37.5631 49.4633 37.88 49.0701L50.1113 33.8533C50.4279 33.4596 50.651 33.0003 50.7641 32.5094C50.8772 32.0185 50.8774 31.5086 50.7646 31.0176L46.3976 12.0421C46.2843 11.5515 46.061 11.0925 45.7444 10.6991C45.4278 10.3057 45.0259 9.98808 44.5686 9.76978L26.8888 1.32503C26.3783 1.08116 25.8142 0.968478 25.2483 0.997347V0.997347ZM25.2568 2.2995C25.7925 2.27242 26.3264 2.3792 26.8096 2.61005L43.5577 10.6072C43.9911 10.8142 44.372 11.1154 44.6719 11.4884C44.9719 11.8614 45.1833 12.2966 45.2904 12.7617L49.4281 30.7349C49.5352 31.2003 49.5352 31.6836 49.4281 32.149C49.3209 32.6143 49.1094 33.0497 48.8092 33.4228L37.2226 47.8365C36.9223 48.209 36.5413 48.5097 36.1079 48.7162C35.6745 48.9227 35.1997 49.0298 34.7189 49.0294L16.131 49.0337C15.65 49.0338 15.1751 48.9264 14.7417 48.7195C14.3083 48.5126 13.9274 48.2115 13.6274 47.8386L2.03645 33.4271C1.97165 33.3458 1.9109 33.2615 1.85441 33.1744C1.62144 32.8179 1.46292 32.4188 1.38824 32.0005C1.31357 31.5822 1.32424 31.1534 1.41964 30.7392L5.55099 12.766C5.65808 12.3009 5.86946 11.8657 6.16942 11.4927C6.46937 11.1197 6.85021 10.8185 7.28363 10.6115L24.0296 2.61007C24.4138 2.42656 24.831 2.32098 25.2568 2.29952L25.2568 2.2995Z" fill="white"/>
<path d="M22.9159 41.7936C22.9159 41.5871 22.8375 41.4274 22.6805 41.3145C22.5263 41.1989 22.2551 41.0997 21.8669 41.0171C21.4815 40.9345 21.1745 40.8354 20.9459 40.7198C20.7202 40.6041 20.5522 40.4665 20.4421 40.3068C20.3347 40.1471 20.281 39.9571 20.281 39.7368C20.281 39.3706 20.4352 39.0609 20.7436 38.8076C21.0547 38.5543 21.4512 38.4276 21.933 38.4276C22.4396 38.4276 22.8499 38.5584 23.1637 38.82C23.4804 39.0815 23.6387 39.4161 23.6387 39.8236H22.8705C22.8705 39.6143 22.781 39.434 22.6021 39.2825C22.4258 39.1311 22.2028 39.0554 21.933 39.0554C21.6549 39.0554 21.4374 39.116 21.2805 39.2371C21.1235 39.3582 21.045 39.5166 21.045 39.7121C21.045 39.8965 21.118 40.0356 21.2639 40.1292C21.4099 40.2228 21.6728 40.3123 22.0528 40.3976C22.4355 40.483 22.7452 40.5849 22.982 40.7033C23.2188 40.8216 23.3936 40.9648 23.5065 41.1328C23.6222 41.298 23.68 41.5003 23.68 41.7399C23.68 42.1391 23.5203 42.4599 23.2009 42.7022C22.8815 42.9417 22.4671 43.0615 21.9578 43.0615C21.5998 43.0615 21.2832 42.9982 21.0079 42.8715C20.7325 42.7448 20.5164 42.5686 20.3595 42.3429C20.2053 42.1143 20.1282 41.8679 20.1282 41.6036H20.8922C20.906 41.8597 21.0079 42.0634 21.1979 42.2148C21.3906 42.3635 21.6439 42.4379 21.9578 42.4379C22.2469 42.4379 22.4782 42.38 22.6516 42.2644C22.8278 42.146 22.9159 41.9891 22.9159 41.7936ZM26.1497 41.9423L27.2566 38.5102H28.0371L26.4347 42.9789H25.8524L24.2334 38.5102H25.014L26.1497 41.9423ZM30.5069 42.4379C30.7795 42.4379 31.0176 42.3553 31.2214 42.1901C31.4251 42.0249 31.538 41.8184 31.56 41.5706H32.2828C32.269 41.8266 32.1809 42.0703 32.0185 42.3016C31.856 42.5328 31.6385 42.7173 31.3659 42.855C31.0961 42.9926 30.8097 43.0615 30.5069 43.0615C29.8984 43.0615 29.4138 42.8591 29.0531 42.4544C28.6952 42.0469 28.5162 41.4907 28.5162 40.7859V40.6578C28.5162 40.2228 28.5961 39.836 28.7558 39.4973C28.9155 39.1586 29.144 38.8957 29.4413 38.7085C29.7415 38.5212 30.0953 38.4276 30.5027 38.4276C31.0039 38.4276 31.4196 38.5777 31.75 38.8778C32.0832 39.1779 32.2607 39.5675 32.2828 40.0466H31.56C31.538 39.7575 31.4279 39.5207 31.2296 39.3362C31.0341 39.149 30.7918 39.0554 30.5027 39.0554C30.1145 39.0554 29.813 39.1958 29.5983 39.4766C29.3863 39.7547 29.2803 40.1581 29.2803 40.6867V40.8313C29.2803 41.3462 29.3863 41.7426 29.5983 42.0207C29.8103 42.2988 30.1131 42.4379 30.5069 42.4379Z" fill="white"/>
<path fill-rule="evenodd" clip-rule="evenodd" d="M10.1351 29.4312H18.3349V35.1875H10.1351V29.4312Z" fill="white"/>
<path fill-rule="evenodd" clip-rule="evenodd" d="M21.3245 29.4312H29.5243V35.1875H21.3245V29.4312Z" fill="white"/>
<path fill-rule="evenodd" clip-rule="evenodd" d="M32.5141 29.4312H40.7139V35.1875H32.5141V29.4312Z" fill="white"/>
<path fill-rule="evenodd" clip-rule="evenodd" d="M18.9281 12.3667H31.9209V18.123H18.9281V12.3667Z" fill="white"/>
<path d="M25.4244 18.1228V23.777H14.2407V29.424" stroke="white" stroke-width="1.49194" stroke-miterlimit="10" stroke-linejoin="round"/>
<path d="M25.4244 18.1228V23.777H36.6081V29.424" stroke="white" stroke-width="1.49147" stroke-miterlimit="10" stroke-linejoin="round"/>
<path d="M25.4009 18.1268V23.781H25.448V29.428" stroke="white" stroke-width="1.49194" stroke-miterlimit="10" stroke-linejoin="round"/>
</svg>
