<svg width="51" height="50" viewBox="0 0 51 50" fill="none" xmlns="http://www.w3.org/2000/svg">
<path d="M25.2573 1.96469C24.8315 1.98614 24.4143 2.09172 24.0301 2.27524L7.28411 10.2767C6.85068 10.4836 6.46985 10.7848 6.16989 11.1578C5.86993 11.5308 5.65856 11.9661 5.55147 12.4312L1.42011 30.4044C1.32472 30.8185 1.31404 31.2474 1.38872 31.6657C1.46339 32.0839 1.62191 32.4831 1.85488 32.8395C1.91137 32.9267 1.97212 33.011 2.03692 33.0923L13.6278 47.5038C13.9279 47.8767 14.3087 48.1778 14.7422 48.3847C15.1756 48.5916 15.6505 48.699 16.1315 48.6989L34.7194 48.6946C35.2002 48.6949 35.675 48.5879 36.1084 48.3814C36.5418 48.1748 36.9228 47.8742 37.223 47.5017L48.8097 33.088C49.1098 32.7149 49.3214 32.2795 49.4285 31.8142C49.5357 31.3488 49.5357 30.8655 49.4286 30.4001L45.2908 12.4269C45.1838 11.9618 44.9724 11.5266 44.6724 11.1535C44.3725 10.7805 43.9916 10.4794 43.5582 10.2724L26.8101 2.27524C26.3269 2.04439 25.7929 1.93761 25.2573 1.96469Z" fill="#326CE5"/>
<path d="M25.2483 0.663606C24.7992 0.687127 24.3595 0.799256 23.9547 0.99343L6.27489 9.43818C5.81735 9.6567 5.41533 9.97465 5.09869 10.3684C4.78205 10.7622 4.55891 11.2216 4.44587 11.7127L0.0853571 30.6861C-0.0156573 31.1234 -0.0271418 31.5764 0.051585 32.0182C0.130312 32.4601 0.297647 32.8817 0.543678 33.2582C0.60353 33.3498 0.667854 33.4384 0.736421 33.5238L12.972 48.7385C13.2887 49.1321 13.6908 49.4499 14.1483 49.6683C14.6058 49.8867 15.1071 50 15.6149 50L35.2372 49.9957C35.7448 49.996 36.2459 49.883 36.7034 49.665C37.161 49.447 37.5631 49.1296 37.88 48.7363L50.1113 33.5195C50.4279 33.1259 50.651 32.6665 50.7641 32.1756C50.8772 31.6847 50.8774 31.1749 50.7646 30.6839L46.3976 11.7084C46.2843 11.2177 46.061 10.7587 45.7444 10.3653C45.4278 9.97196 45.0259 9.65434 44.5686 9.43604L26.8888 0.991288C26.3783 0.747418 25.8142 0.634738 25.2483 0.663606V0.663606ZM25.2568 1.96576C25.7925 1.93868 26.3264 2.04546 26.8096 2.27631L43.5577 10.2734C43.9911 10.4804 44.372 10.7816 44.6719 11.1546C44.9719 11.5276 45.1833 11.9629 45.2904 12.428L49.4281 30.4012C49.5352 30.8666 49.5352 31.3499 49.4281 31.8152C49.3209 32.2806 49.1094 32.716 48.8092 33.089L37.2226 47.5027C36.9223 47.8753 36.5413 48.1759 36.1079 48.3824C35.6745 48.589 35.1997 48.696 34.7189 48.6957L16.131 48.7C15.65 48.7001 15.1751 48.5927 14.7417 48.3858C14.3083 48.1789 13.9274 47.8778 13.6274 47.5049L2.03645 33.0934C1.97165 33.0121 1.9109 32.9278 1.85441 32.8406C1.62144 32.4842 1.46292 32.085 1.38824 31.6668C1.31357 31.2485 1.32424 30.8196 1.41964 30.4055L5.55099 12.4323C5.65808 11.9672 5.86946 11.5319 6.16942 11.1589C6.46937 10.7859 6.85021 10.4847 7.28363 10.2777L24.0296 2.27633C24.4138 2.09282 24.831 1.98724 25.2568 1.96578L25.2568 1.96576Z" fill="white"/>
<path d="M20.2535 45.2211C19.9561 45.5707 19.5197 45.7456 18.9443 45.7456C18.4679 45.7456 18.1045 45.6079 17.854 45.3326C17.6062 45.0545 17.4809 44.6442 17.4781 44.1018V41.1943H18.2422V44.0812C18.2422 44.7585 18.5175 45.0972 19.0682 45.0972C19.6519 45.0972 20.0401 44.8796 20.2328 44.4446V41.1943H20.9969V45.663H20.27L20.2535 45.2211ZM24.7634 44.4777C24.7634 44.2712 24.685 44.1115 24.528 43.9986C24.3738 43.8829 24.1026 43.7838 23.7144 43.7012C23.329 43.6186 23.022 43.5195 22.7934 43.4039C22.5677 43.2882 22.3997 43.1505 22.2896 42.9909C22.1822 42.8312 22.1285 42.6412 22.1285 42.4209C22.1285 42.0547 22.2827 41.745 22.5911 41.4917C22.9022 41.2384 23.2987 41.1117 23.7805 41.1117C24.2871 41.1117 24.6974 41.2425 25.0112 41.5041C25.3279 41.7656 25.4862 42.1002 25.4862 42.5076H24.718C24.718 42.2984 24.6285 42.118 24.4496 41.9666C24.2733 41.8152 24.0503 41.7395 23.7805 41.7395C23.5024 41.7395 23.2849 41.8 23.128 41.9212C22.971 42.0423 22.8926 42.2006 22.8926 42.3961C22.8926 42.5806 22.9655 42.7197 23.1114 42.8133C23.2574 42.9069 23.5203 42.9964 23.9003 43.0817C24.283 43.1671 24.5927 43.2689 24.8295 43.3873C25.0663 43.5057 25.2411 43.6489 25.354 43.8169C25.4697 43.9821 25.5275 44.1844 25.5275 44.424C25.5275 44.8232 25.3678 45.144 25.0484 45.3863C24.729 45.6258 24.3146 45.7456 23.8053 45.7456C23.4473 45.7456 23.1307 45.6822 22.8554 45.5556C22.58 45.4289 22.3639 45.2527 22.207 45.0269C22.0528 44.7984 21.9757 44.552 21.9757 44.2877H22.7397C22.7535 44.5437 22.8554 44.7475 23.0454 44.8989C23.2381 45.0476 23.4914 45.1219 23.8053 45.1219C24.0944 45.1219 24.3257 45.0641 24.4991 44.9485C24.6753 44.8301 24.7634 44.6731 24.7634 44.4777ZM28.3772 45.7456C27.7715 45.7456 27.2786 45.5473 26.8986 45.1508C26.5187 44.7516 26.3287 44.2188 26.3287 43.5525V43.4121C26.3287 42.9688 26.4127 42.5737 26.5806 42.2268C26.7513 41.8771 26.9881 41.6046 27.291 41.4091C27.5966 41.2108 27.927 41.1117 28.2822 41.1117C28.8632 41.1117 29.3147 41.3031 29.6368 41.6858C29.959 42.0685 30.12 42.6164 30.12 43.3295V43.6475H27.0928C27.1038 44.0881 27.2318 44.4446 27.4768 44.7172C27.7246 44.987 28.0385 45.1219 28.4185 45.1219C28.6883 45.1219 28.9168 45.0669 29.1041 44.9567C29.2913 44.8466 29.4551 44.7007 29.5955 44.519L30.0622 44.8824C29.6878 45.4578 29.1261 45.7456 28.3772 45.7456ZM28.2822 41.7395C27.9738 41.7395 27.715 41.8524 27.5058 42.0781C27.2965 42.3011 27.1671 42.615 27.1175 43.0198H29.356V42.9619C29.334 42.5737 29.2293 42.2736 29.0421 42.0616C28.8549 41.8468 28.6016 41.7395 28.2822 41.7395ZM33.168 41.8799C33.0523 41.8606 32.9271 41.851 32.7922 41.851C32.2911 41.851 31.951 42.0644 31.772 42.4911V45.663H31.008V41.1943H31.7514L31.7638 41.7106C32.0143 41.3113 32.3695 41.1117 32.8293 41.1117C32.978 41.1117 33.0909 41.131 33.168 41.1695V41.8799Z" fill="white"/>
<path d="M14.591 10.8575C13.2531 10.8575 12.1754 11.9344 12.1754 13.2723V33.8123C12.1754 35.1502 13.2531 36.2279 14.591 36.2279H36.2589C37.5967 36.2279 38.6736 35.1502 38.6736 33.8123V13.2723C38.6736 11.9344 37.5967 10.8575 36.2589 10.8575H14.591ZM25.4249 14.8659C27.4825 14.8659 29.1306 16.527 29.1306 18.5846C29.1306 20.6422 27.4825 22.3025 25.4249 22.3025C23.3674 22.3025 21.7062 20.6422 21.7062 18.5846C21.7062 16.527 23.3674 14.8659 25.4249 14.8659ZM25.4249 24.7821C28.313 24.7821 34.1013 26.2319 34.1013 29.1199V32.2187H16.7477V29.1199C16.7477 26.2319 22.5369 24.7821 25.4249 24.7821Z" fill="white"/>
</svg>
